<svg width="41" height="22" viewBox="0 0 41 22" fill="none" xmlns="http://www.w3.org/2000/svg">
<path d="M20.5001 10.9293C23.0518 10.9293 25.1318 8.42981 25.1318 5.38803C25.1318 2.3816 23.0624 0 20.5001 0C17.959 0 15.8682 2.41695 15.8682 5.41154C15.8789 8.44164 17.959 10.9293 20.5001 10.9293ZM8.14853 11.1887C10.3572 11.1887 12.1692 9.00753 12.1692 6.33119C12.1692 3.71386 10.3786 1.60341 8.14853 1.60341C5.93987 1.60341 4.11713 3.7492 4.12789 6.35478C4.13858 9.01929 5.93987 11.1887 8.14853 11.1887ZM32.8621 11.1887C35.0601 11.1887 36.8721 9.01929 36.8721 6.35478C36.8829 3.7492 35.0601 1.60341 32.8621 1.60341C30.6213 1.60341 28.8308 3.71386 28.8308 6.33119C28.8308 9.00753 30.6428 11.1887 32.8621 11.1887ZM20.5001 9.14899C18.9346 9.14899 17.5944 7.4984 17.5944 5.41154C17.5944 3.36018 18.9132 1.78029 20.5001 1.78029C22.0975 1.78029 23.4056 3.3366 23.4056 5.38803C23.4056 7.47481 22.0868 9.14899 20.5001 9.14899ZM8.14853 9.43198C6.84048 9.43198 5.72543 8.05254 5.72543 6.35478C5.72543 4.69236 6.82972 3.36018 8.14853 3.36018C9.49948 3.36018 10.5824 4.66885 10.5824 6.33119C10.5824 8.05254 9.46727 9.43198 8.14853 9.43198ZM32.8621 9.43198C31.5327 9.43198 30.4177 8.05254 30.4177 6.33119C30.4177 4.66885 31.5004 3.36018 32.8621 3.36018C34.1809 3.36018 35.2746 4.69236 35.2746 6.35478C35.2746 8.05254 34.1701 9.43198 32.8621 9.43198ZM2.1872 22H10.6038C10.0891 21.6818 9.69247 20.9743 9.76752 20.2551H1.91917C1.70472 20.2551 1.59754 20.1608 1.59754 19.9368C1.59754 17.0129 4.63176 14.2776 8.13777 14.2776C9.48879 14.2776 10.7003 14.6313 11.7404 15.3033C12.0834 14.8318 12.4694 14.4191 12.9518 14.0536C11.5687 13.0515 9.90692 12.5327 8.13777 12.5327C3.64541 12.5327 0 16.1168 0 20.0429C0 21.3516 0.729068 22 2.1872 22ZM38.8235 22C40.271 22 41 21.3516 41 20.0429C41 16.1168 37.3545 12.5327 32.8621 12.5327C31.0932 12.5327 29.4419 13.0515 28.0482 14.0536C28.5307 14.4191 28.9272 14.8318 29.2704 15.3033C30.2996 14.6313 31.522 14.2776 32.8621 14.2776C36.3682 14.2776 39.4025 17.0129 39.4025 19.9368C39.4025 20.1608 39.3059 20.2551 39.0916 20.2551H31.2431C31.3075 20.9743 30.9214 21.6818 30.4069 22H38.8235ZM13.7667 22H27.2334C29.0131 22 29.8602 21.4105 29.8602 20.1137C29.8602 17.0247 26.3111 12.5563 20.5001 12.5563C14.6781 12.5563 11.1292 17.0247 11.1292 20.1137C11.1292 21.4105 11.9762 22 13.7667 22ZM13.2521 20.2198C12.9734 20.2198 12.8554 20.1372 12.8554 19.8896C12.8554 17.9561 15.5787 14.3366 20.5001 14.3366C25.4106 14.3366 28.1338 17.9561 28.1338 19.8896C28.1338 20.1372 28.0266 20.2198 27.7479 20.2198H13.2521Z" fill="white"/>
</svg>
