<svg width="30" height="25" viewBox="0 0 30 25" fill="none" xmlns="http://www.w3.org/2000/svg">
<path d="M6.57537 25H23.4376C25.2612 25 26.3273 24.049 26.3273 22.3728V11.5193L27.9837 12.922C28.2536 13.1598 28.5489 13.3262 28.9085 13.3262C29.5121 13.3262 30 12.9814 30 12.4108C30 12.0542 29.8587 11.8283 29.615 11.6263L25.1584 7.85779V0.855921C25.1584 0.332833 24.7989 0 24.2339 0H22.5514C21.9992 0 21.6139 0.332833 21.6139 0.855921V4.87396L16.5412 0.594402C16.0917 0.213993 15.5523 0 15.0001 0C14.4478 0 13.9084 0.213993 13.459 0.594402L0.385262 11.6263C0.154138 11.8283 0 12.0542 0 12.4108C0 12.9814 0.488002 13.3262 1.09162 13.3262C1.46406 13.3262 1.7594 13.1598 2.01628 12.922L3.67294 11.5311V22.3728C3.67294 24.049 4.73887 25 6.57537 25ZM18.6987 15.1926C18.6987 14.6458 18.3134 14.301 17.7227 14.301H12.2774C11.6867 14.301 11.2886 14.6458 11.2886 15.1926V23.0861H7.01202C6.1901 23.0861 5.74062 22.67 5.74062 21.8973V9.78362L14.5506 2.35377C14.679 2.23488 14.8331 2.16357 15.0001 2.16357C15.167 2.16357 15.3211 2.22301 15.4624 2.35377L24.2594 9.78362V21.8973C24.2594 22.67 23.8099 23.0861 23.001 23.0861H18.6987V15.1926Z" fill="white"/>
</svg>
