<svg width="32" height="26" viewBox="0 0 32 26" fill="none" xmlns="http://www.w3.org/2000/svg">
<path d="M20.8985 12.5761C20.8985 13.1857 20.3881 13.7103 19.7926 13.7103H5.2316L3.10489 13.611L4.12572 14.5752L6.40838 16.7303C6.63524 16.9288 6.74866 17.2265 6.74866 17.51C6.74866 18.1055 6.32333 18.5309 5.7562 18.5309C5.4443 18.5309 5.21745 18.4033 5.00475 18.1906L0.382682 13.3984C0.099028 13.1148 0 12.8738 0 12.5761C0 12.2925 0.099028 12.0373 0.382682 11.7537L5.00475 6.96148C5.21745 6.74884 5.4443 6.63542 5.7562 6.63542C6.32333 6.63542 6.74866 7.0749 6.74866 7.6704C6.74866 7.93978 6.63524 8.23753 6.40838 8.43601L4.12572 10.5769L3.11905 11.5411L5.2316 11.456H19.7926C20.3881 11.456 20.8985 11.9664 20.8985 12.5761ZM32 20.7143C32 23.6634 30.5396 25.1663 27.6048 25.1663H13.6251C10.6902 25.1663 9.22987 23.6634 9.22987 20.7143V16.7586H11.5125V20.6718C11.5125 22.0896 12.264 22.8836 13.7385 22.8836H27.4914C28.9659 22.8836 29.7173 22.0896 29.7173 20.6718V4.48033C29.7173 3.09086 28.9659 2.28266 27.4914 2.28266H13.7385C12.264 2.28266 11.5125 3.09086 11.5125 4.48033V8.39348H9.22987V4.45196C9.22987 1.47453 10.7044 0 13.6251 0H27.6048C30.5255 0 32 1.47453 32 4.45196V20.7143Z" fill="white"/>
</svg>
