<svg width="23" height="26" viewBox="0 0 23 26" fill="none" xmlns="http://www.w3.org/2000/svg">
<path d="M11.5066 12.7433C14.6399 12.7433 17.1941 9.82897 17.1941 6.28227C17.1941 2.76309 14.6663 0 11.5066 0C8.38635 0 5.81909 2.8181 5.81909 6.30978C5.83224 9.84275 8.38635 12.7433 11.5066 12.7433ZM11.5066 10.6675C9.5844 10.6675 7.93871 8.74295 7.93871 6.30978C7.93871 3.91785 9.55811 2.07579 11.5066 2.07579C13.4814 2.07579 15.0744 3.89034 15.0744 6.28227C15.0744 8.7155 13.4551 10.6675 11.5066 10.6675ZM3.23869 25.4591H19.7745C21.96 25.4591 23 24.7718 23 23.2596C23 19.6579 18.6554 14.4479 11.5066 14.4479C4.35776 14.4479 0 19.6579 0 23.2596C0 24.7718 1.04004 25.4591 3.23869 25.4591ZM2.60669 23.3833C2.26443 23.3833 2.11962 23.2871 2.11962 22.9984C2.11962 20.744 5.46363 16.5236 11.5066 16.5236C17.5495 16.5236 20.8804 20.744 20.8804 22.9984C20.8804 23.2871 20.7487 23.3833 20.4065 23.3833H2.60669Z" fill="white"/>
</svg>
