<svg width="329" height="335" viewBox="0 0 329 335" fill="none" xmlns="http://www.w3.org/2000/svg">
<path d="M250.504 334.997C258.593 335.043 266.67 334.512 274.753 334.513C276.776 334.577 278.799 334.599 280.822 334.63C282.364 334.803 288.064 335.321 285.576 332.634C284.726 329.18 283.546 326.845 286.659 323.88C290.702 320.754 297.652 320.074 299.15 314.623C300.4 307.164 290.238 303.379 290.457 296.213C290.694 293.234 291.754 290.224 294.338 288.323C294.298 288.359 294.258 288.394 294.218 288.43C296.308 286.499 298.896 285.172 301.568 284.083C301.542 284.093 301.516 284.104 301.49 284.115C305.713 282.221 310.677 280.982 313.719 277.443C317.012 273.428 315.815 267.198 311.576 264.189C304.572 258.795 295.441 256.778 286.923 254.403C273.493 250.898 259.727 248.297 245.795 247.486C245.8 247.487 245.805 247.487 245.81 247.487C245.454 247.475 245.101 247.442 244.744 247.439C244.746 247.439 244.749 247.439 244.752 247.44C237.631 247.029 230.546 247.657 223.694 249.551C223.734 249.541 223.776 249.531 223.816 249.521C219.919 250.605 215.924 251.607 212.245 253.244C205.834 256.687 200.539 262.782 200.484 269.957C200.516 275.261 204.14 279.651 205.339 284.7C207.896 296.08 188.383 294.549 186.076 303.977C184.845 309.616 188.117 315.079 190.066 320.265C191.331 323.082 192.655 325.895 193.405 328.88C193.569 329.784 193.714 330.979 194.856 331.22C210.615 333.45 226.596 334.067 242.506 334.794C242.495 334.793 242.485 334.793 242.474 334.792C245.149 334.903 247.826 335.015 250.504 334.997ZM271.155 332.298C262.077 332.644 252.981 333.08 243.892 332.74C243.898 332.741 243.904 332.741 243.91 332.741C243.871 332.739 243.834 332.737 243.796 332.736C243.83 332.737 243.864 332.739 243.898 332.741C243.65 332.73 243.402 332.718 243.153 332.708C243.205 332.71 243.256 332.712 243.307 332.714C238.95 332.537 234.593 332.387 230.242 332.106C230.244 332.106 230.247 332.106 230.25 332.106C218.796 331.415 207.254 331.014 195.948 329.06C195.105 324.516 192.666 320.434 191.011 316.136C191.033 316.194 191.056 316.253 191.079 316.311C183.892 299.933 192.321 302.049 204.077 294.302C208.607 291.562 208.936 286.137 206.981 281.829C205.816 278.348 203.507 275.254 202.947 271.595C201.966 264.874 206.941 258.817 212.688 255.34C216.564 253.248 221.046 252.287 225.297 251.055C231.72 249.305 238.366 248.874 245.022 249.217C244.979 249.216 244.937 249.214 244.894 249.212C260.544 250.006 275.975 253.081 290.99 257.197C299.294 259.849 319.358 264.583 311.902 276.039C311.912 276.026 311.922 276.014 311.932 276.002C308.414 279.649 302.873 280.575 298.382 282.819C294.261 284.801 289.94 287.78 288.825 292.221C285.652 301.693 294.318 304.447 296.879 311.889C298.055 317.482 290.109 318.701 286.382 321.132C282.129 323.595 281.639 328.581 283.71 332.525C279.538 332.478 275.342 332.202 271.155 332.298Z" fill="white"/>
<path d="M284.948 334.672C293.563 334.737 301.839 331.977 310.457 331.996C316.239 331.819 322.711 333.218 327.96 330.382C329.875 329.197 327.814 327.112 327.552 325.55C323.461 315.551 320.934 305.097 318.358 294.687C317.288 290.046 316.301 285.377 315.718 280.657C315.372 277.406 315.615 273.917 315.04 270.783C313.528 270.154 314.2 274.762 314.041 275.548C313.654 283.616 315.595 291.57 317.456 299.399C319.585 308.218 321.99 316.997 325.502 325.433C325.499 325.424 325.495 325.414 325.492 325.405C325.508 325.449 325.526 325.492 325.543 325.536C325.539 325.527 325.536 325.519 325.532 325.51C325.853 326.34 326.182 327.168 326.504 327.998C326.487 327.956 326.471 327.913 326.454 327.87C326.545 328.106 326.645 328.342 326.725 328.582C321.376 331.76 311.217 329.103 304.738 330.153C304.739 330.153 304.74 330.153 304.741 330.153C304.691 330.157 304.641 330.162 304.591 330.167C304.608 330.165 304.625 330.163 304.641 330.162C304.609 330.165 304.577 330.168 304.545 330.171C304.56 330.169 304.575 330.168 304.59 330.167C304.54 330.171 304.491 330.176 304.441 330.181C304.447 330.18 304.453 330.18 304.46 330.179C299.961 330.631 295.53 331.512 291.056 332.113C289.237 332.535 284.721 331.638 283.677 332.706C283.124 333.53 283.938 334.707 284.948 334.672Z" fill="white"/>
<path d="M197.378 330.582C197.279 328.246 192.345 329.092 190.614 328.997C188.302 329.135 185.991 328.828 183.681 328.751C185.818 321.822 187.035 314.733 187.698 307.562C187.869 306.497 187.941 305.415 188.253 304.375C188.492 303.762 188.768 302.946 188.006 302.556C187.456 302.223 186.638 302.713 186.949 303.326C185.381 307.427 185.36 311.879 184.572 316.138C184.123 317.965 183.511 319.756 183.178 321.609C182.719 323.839 182.046 326.022 181.463 328.224C180.383 330.614 183.514 330.895 185.302 330.839C185.295 330.839 185.287 330.838 185.279 330.838C188.082 331.105 190.876 331.014 193.682 331.044C194.858 330.757 196.945 332.142 197.378 330.582Z" fill="white"/>
<path d="M198.246 296.047C199.677 295.043 199.379 290.354 199.756 288.593C200.469 283.812 200.911 279.008 201.36 274.204C201.748 271.374 202.658 268.64 203.103 265.819C203.097 265.847 203.092 265.874 203.086 265.902C203.163 264.848 204.502 261.829 202.967 261.485C202.753 261.521 202.63 261.702 202.636 261.894C202.636 261.891 202.636 261.888 202.635 261.884C202.203 265.476 200.684 268.911 199.938 272.462C199.032 277.277 198.876 282.19 197.902 287.005C197.59 289.163 197.471 291.346 197.074 293.495C196.684 294.553 196.467 296.322 198.246 296.047Z" fill="white"/>
<path d="M203.599 287.948C203.55 286.803 204.354 284.429 203.725 283.61C203.061 283.381 203.392 284.286 203.231 284.612C203.234 284.597 203.237 284.581 203.24 284.566C203.171 285.434 202.114 287.699 202.993 288.207C203.227 288.297 203.541 288.204 203.599 287.948Z" fill="white" fill-opacity="0.5"/>
<path d="M202.105 283.185C202.101 282.641 202.715 281.219 202.02 281.02C201.436 281.091 201.566 282.341 201.244 282.791C201.001 283.285 201.895 283.771 202.105 283.185Z" fill="white" fill-opacity="0.5"/>
<path d="M201.16 289.791C201.091 289.165 201.827 287.779 200.756 287.727C200.209 287.952 200.434 288.984 200.185 289.485C200.011 290.056 201.022 290.47 201.16 289.791Z" fill="white" fill-opacity="0.5"/>
<path d="M187.884 319.227C188.173 318.388 188.327 317.47 188.254 316.592C188.186 316.306 187.726 316.147 187.544 316.424C187.426 316.907 187.444 317.45 187.236 317.938C187.129 318.408 186.626 319.061 187.231 319.396C187.449 319.512 187.787 319.476 187.884 319.227Z" fill="white" fill-opacity="0.5"/>
<path d="M191.583 323.706C191.767 322.825 191.649 321.904 191.646 321.011C191.589 320.444 190.6 320.352 190.647 321.003C190.645 320.992 190.644 320.98 190.643 320.968C190.85 321.892 189.809 323.482 190.818 324.032C191.118 324.15 191.494 324.026 191.583 323.706Z" fill="white" fill-opacity="0.5"/>
<path d="M187.992 325.291C188.006 324.723 188.041 324.147 187.936 323.585C187.843 322.879 186.64 322.981 186.931 323.73C186.931 323.729 186.93 323.728 186.929 323.726C187.1 324.36 186.447 325.396 187.358 325.687C187.641 325.756 187.976 325.589 187.992 325.291Z" fill="white" fill-opacity="0.5"/>
<path d="M311.423 287.829C312.637 287.677 311.888 286.287 311.798 285.572C311.453 284.056 311.204 282.523 311.056 280.978C311.058 280.994 311.059 281.011 311.06 281.027C311.058 280.996 311.055 280.966 311.052 280.936C311.053 280.949 311.055 280.962 311.056 280.976C311.013 280.356 310.874 276.767 309.686 278.236L309.686 278.236C309.801 279.784 309.474 287.82 311.423 287.829Z" fill="white" fill-opacity="0.5"/>
<path d="M313.478 296.484C314.537 296.348 313.917 295.119 313.748 294.51C313.242 293.288 313.18 291.777 312.296 290.744C311.996 290.48 311.457 290.668 311.482 291.074C311.568 291.428 311.788 291.742 311.826 292.121C312.318 293.157 312.122 296.399 313.478 296.484Z" fill="white" fill-opacity="0.5"/>
<path d="M305.333 286.714C306.395 286.568 305.686 285.394 305.545 284.794C305.211 283.821 305.038 282.779 304.561 281.858C304.28 281.289 303.321 281.618 303.82 282.178C304.334 283.176 304.075 286.809 305.333 286.714Z" fill="white" fill-opacity="0.5"/>
<path d="M307.436 291.398C308.42 291.302 308 290.269 307.743 289.715C307.367 289.075 307.421 287.701 306.409 287.708C305.589 287.939 306.242 288.853 306.302 289.375C306.512 290.087 306.353 291.359 307.436 291.398Z" fill="white" fill-opacity="0.5"/>
<path d="M310.697 303.201C311.818 302.851 310.822 301.566 310.661 300.869C310.057 299.172 309.46 297.473 308.794 295.795C308.578 294.538 306.774 294.919 307.786 295.955C308.372 297.139 309.279 303.675 310.697 303.201Z" fill="white" fill-opacity="0.5"/>
<path d="M315.943 311.665C317.025 311.309 315.979 310.086 315.836 309.412C315.836 309.413 315.837 309.414 315.837 309.415C315.272 308.536 315.391 306.588 314.17 306.362C313.771 306.383 313.673 306.866 313.919 307.111C314.405 308.202 314.441 311.629 315.943 311.665Z" fill="white" fill-opacity="0.5"/>
<path d="M314.009 302.094C314.315 302.043 314.488 301.725 314.386 301.456C314.03 300.891 314.052 299.666 313.172 299.658C312.843 299.711 312.721 300.075 312.867 300.332C313.167 300.908 313.083 302.132 314.009 302.094Z" fill="white" fill-opacity="0.5"/>
<path d="M296.509 291.531C297.55 291.396 296.836 290.287 296.687 289.717C296.405 289.234 295.859 285.452 295.006 286.505C295.006 286.504 295.007 286.503 295.007 286.502C295.259 287.96 295.569 289.416 295.73 290.89C295.772 291.238 296.136 291.54 296.509 291.531Z" fill="white" fill-opacity="0.5"/>
<path d="M301.49 301.947C302.821 301.542 301.029 299.29 301.022 298.351C300.609 297.574 300.92 295.675 299.623 295.793C298.801 296.032 299.911 298.313 299.907 299.032C300.348 299.94 300.089 301.916 301.49 301.947Z" fill="white" fill-opacity="0.5"/>
<path d="M302.718 297.738C303.904 297.352 302.805 295.964 302.71 295.192C302.356 294.053 302.107 292.889 301.82 291.734C301.31 289.755 300.776 287.78 300.338 285.785C300.185 285.352 300.221 284.309 299.507 284.464C299.383 284.528 299.345 284.651 299.364 284.77C299.362 284.769 299.361 284.769 299.36 284.768C299.716 286.384 300.832 298.388 302.718 297.738Z" fill="white" fill-opacity="0.5"/>
<path d="M307.069 311.393C308.559 311.049 306.834 309.113 306.727 308.245C306.739 308.272 306.749 308.3 306.76 308.327C306.171 307.495 305.558 303.034 304.397 303.525C303.784 303.571 305.25 306.991 305.307 307.639C305.827 308.591 305.806 311.283 307.069 311.393Z" fill="white" fill-opacity="0.5"/>
<path d="M311.907 323.435C313.018 323.121 312.093 321.956 311.822 321.339C311.165 320.267 310.969 318.884 310.116 317.953C308.787 317.628 310.095 319.941 310.147 320.495C310.701 321.399 310.484 323.398 311.907 323.435Z" fill="white" fill-opacity="0.5"/>
<path d="M318.227 321.531C319.19 320.929 317.804 319.724 317.715 318.921C317.309 318.275 317.336 316.633 316.336 316.654C315.708 317.028 316.696 318.483 316.712 319.119C317.066 319.885 316.995 321.652 318.227 321.531Z" fill="white" fill-opacity="0.5"/>
<path d="M303.299 321.341C304.373 321 303.055 319.707 302.884 319.082C302.567 318.65 302.468 317.756 301.891 317.63C301.859 318.263 302.373 319.047 302.457 319.747C302.455 319.739 302.454 319.731 302.452 319.722C302.455 319.739 302.459 319.756 302.464 319.772C302.462 319.764 302.46 319.756 302.458 319.748C302.66 320.271 302.521 321.274 303.299 321.341Z" fill="white" fill-opacity="0.5"/>
<path d="M293.208 292.799C293.088 291.945 292.168 289.072 291.315 288.813C290.867 288.76 290.785 289.347 291.125 289.536C291.491 290.585 291.898 291.645 292.029 292.747C292.069 293.384 293.223 293.536 293.208 292.799Z" fill="white" fill-opacity="0.5"/>
<path d="M296.249 302.262C297.318 301.947 296.105 299.991 295.861 299.321C296.223 299.432 295.877 298.982 295.812 298.859C295.813 298.861 295.814 298.862 295.816 298.864C294.565 296.567 295.21 300.083 295.472 300.758C295.657 301.266 295.461 302.219 296.249 302.262Z" fill="white" fill-opacity="0.5"/>
<path d="M304.212 331.015C304.823 330.261 304.013 329.286 303.847 328.488C302.605 324.852 301.213 321.262 299.921 317.642C299.234 316.11 298.873 312.594 297.22 311.905C296.74 311.938 296.519 312.61 296.979 312.832C298.241 317.756 299.502 322.682 301.322 327.463C301.981 328.537 302.215 332.191 304.212 331.015Z" fill="white" fill-opacity="0.5"/>
<path d="M303.332 329.993C304.97 329.594 302.595 325.97 302.463 324.852C301.512 322.353 300.573 319.842 299.971 317.245C299.975 317.263 299.98 317.281 299.984 317.299C299.794 316.506 298.708 310.672 297.313 312.262C297.311 312.261 297.31 312.26 297.309 312.259C298.545 317 299.105 321.795 301.115 326.402C301.767 327.483 301.689 329.936 303.332 329.993Z" fill="white"/>
<path d="M298.084 324.664C299.485 324.104 297.584 322.021 297.453 321.045C297.463 321.071 297.474 321.098 297.484 321.125C297.306 320.733 297.246 320.266 296.924 319.95C295.488 319.307 296.433 321.538 296.558 322.143C296.913 322.971 296.791 324.688 298.084 324.664Z" fill="white" fill-opacity="0.5"/>
<path d="M296.869 330.054C298.139 329.864 295.73 326.467 295.448 325.743C295.065 325.356 294.448 325.814 294.756 326.253C295.01 326.592 295.091 327.021 295.26 327.402C295.771 328.148 295.74 330.028 296.869 330.054Z" fill="white" fill-opacity="0.5"/>
<path d="M290.942 325.895C291.99 325.393 290.592 324.075 290.418 323.345C290.218 323.106 290.236 322.468 289.807 322.549C289.398 322.807 290.115 326.29 290.942 325.895Z" fill="white" fill-opacity="0.5"/>
<path d="M287.622 329.615C288.547 329.287 286.949 327.611 286.889 326.939C286.868 326.808 286.714 326.677 286.566 326.75C286.334 327.221 286.829 327.879 286.853 328.41C286.849 328.394 286.845 328.379 286.841 328.363C286.988 328.807 286.911 329.67 287.622 329.615Z" fill="white" fill-opacity="0.5"/>
<path d="M301.617 269.072C301.883 268.609 302.164 268.152 302.437 267.691C302.687 267.389 302.689 266.833 302.175 266.817C301.57 267.162 301.107 267.853 300.648 268.386C300.266 268.911 301.208 269.641 301.617 269.072Z" fill="white" fill-opacity="0.5"/>
<path d="M298.284 267.972C298.956 267.704 298.975 266.796 299.351 266.268C299.584 266.209 299.648 265.952 299.553 265.76C299.554 265.763 299.555 265.767 299.557 265.77C298.789 264.394 296.34 268.078 298.284 267.972Z" fill="white" fill-opacity="0.5"/>
<path d="M295.013 266.512C295.055 265.708 294.802 264.924 294.48 264.191C294.49 264.209 294.5 264.228 294.511 264.247C294.511 264.246 294.51 264.246 294.51 264.245C294.511 264.248 294.513 264.251 294.515 264.254C294.513 264.252 294.512 264.25 294.511 264.248C294.514 264.257 294.517 264.266 294.52 264.275C294.133 263.537 293.359 264.042 293.631 264.736C293.629 264.712 293.627 264.688 293.624 264.665C293.717 265.363 293.492 266.166 293.867 266.798C294.196 267.251 295.031 267.115 295.013 266.512Z" fill="white" fill-opacity="0.5"/>
<path d="M289.476 266.922C290.348 266.487 289.376 265.485 289.102 264.932C288.865 264.48 288.236 263.767 287.743 264.367C287.753 264.354 287.764 264.34 287.776 264.327C287.407 264.855 288.071 265.343 288.26 265.82C288.526 266.274 288.749 267.122 289.476 266.922Z" fill="white" fill-opacity="0.5"/>
<path d="M251.347 259.681C251.592 259.329 252.049 258.862 251.793 258.428C251.602 258.072 250.955 258.058 250.889 258.502C250.747 258.744 250.408 258.861 250.373 259.156C250.293 259.62 250.973 260.062 251.347 259.681Z" fill="white" fill-opacity="0.5"/>
<path d="M247.501 259.281C248.321 259.084 247.786 258.201 247.669 257.699C247.758 257.293 247.38 256.859 246.935 256.87C245.856 256.913 246.551 259.503 247.501 259.281Z" fill="white" fill-opacity="0.5"/>
<path d="M243.868 259.299C244.669 259.128 243.704 257.287 243.111 257.466C242.27 257.62 243.105 259.618 243.868 259.299Z" fill="white" fill-opacity="0.5"/>
<path d="M251.628 302.202C252.314 301.853 253.167 301.506 253.565 300.853C253.604 299.701 252.32 300.504 251.754 300.776C251.762 300.772 251.771 300.769 251.78 300.765C251.29 300.955 250.477 301.153 250.792 301.807C250.921 302.095 251.295 302.317 251.628 302.202Z" fill="white" fill-opacity="0.5"/>
<path d="M249.385 301.143C249.78 300.873 249.653 300.302 249.788 299.902C249.879 299.381 250.101 298.865 250.06 298.33C249.96 297.765 249.097 297.897 249.276 298.485C249.277 298.467 249.279 298.449 249.28 298.432C249.198 299.216 247.629 301.313 249.385 301.143Z" fill="white" fill-opacity="0.5"/>
<path d="M246.488 301.848C247.829 301.6 245.725 298.621 245.124 298.302C244.512 298.144 244.263 298.926 244.712 299.247C245.3 300.031 245.247 301.785 246.488 301.848Z" fill="white" fill-opacity="0.5"/>
<path d="M243.7 302.546C244.595 301.803 243.021 300.894 242.661 300.22C242.535 299.961 242.296 299.703 241.955 299.763C241.095 300.041 241.942 300.879 242.204 301.312C242.597 301.781 242.858 302.874 243.7 302.546Z" fill="white" fill-opacity="0.5"/>
<path d="M278.145 319.778C278.638 319.238 280.547 318.077 279.193 317.521C279.033 317.496 278.855 317.574 278.782 317.71C278.309 318.168 277.687 318.462 277.24 318.948C276.774 319.45 277.622 320.273 278.145 319.778Z" fill="white" fill-opacity="0.5"/>
<path d="M276.072 318.424C276.384 317.716 276.861 316.46 276.511 315.772C275.806 316.093 275.537 317.11 275.055 317.704C274.665 318.261 275.635 319.017 276.072 318.424Z" fill="white" fill-opacity="0.5"/>
<path d="M273.105 318.766C274.395 318.535 272.853 315.837 271.959 316.063C271.226 316.312 271.899 317.033 271.937 317.504C272.075 318.058 272.336 318.874 273.105 318.766Z" fill="white" fill-opacity="0.5"/>
<path d="M269.895 319.239C270.507 318.707 269.735 318.084 269.28 317.743C268.966 317.467 268.48 316.831 268.108 317.406C267.906 318.005 269.135 319.803 269.895 319.239Z" fill="white" fill-opacity="0.5"/>
<path d="M214.96 313.473C215.611 313.043 216.115 312.449 216.591 311.859C216.579 311.876 216.564 311.89 216.548 311.903C216.787 311.679 216.716 311.316 216.452 311.129C215.778 310.728 215.472 311.737 214.889 311.925C214.525 312.186 213.91 312.403 213.904 312.898C213.903 313.371 214.517 313.779 214.96 313.473Z" fill="white" fill-opacity="0.5"/>
<path d="M213.28 311.828C213.82 311.546 214.452 309.135 213.22 309.492C212.876 309.907 212.811 310.529 212.491 311.001C212.285 311.438 212.791 311.984 213.28 311.828Z" fill="white" fill-opacity="0.5"/>
<path d="M210.935 312.478C211.864 312.226 211.166 311.203 210.945 310.668C210.624 310.206 210.68 309.307 209.939 309.277C209.518 309.281 209.344 309.76 209.563 310.06C209.917 310.829 209.724 312.483 210.935 312.478Z" fill="white" fill-opacity="0.5"/>
<path d="M208.181 313.274C208.839 312.705 207.994 312.082 207.575 311.666C207.125 311.285 206.762 310.447 206.046 310.59C205.549 310.76 205.651 311.433 206.07 311.633C206.713 312.154 207.093 313.812 208.181 313.274Z" fill="white" fill-opacity="0.5"/>
<path d="M162.289 281.125C171.093 280.202 173.96 273.009 169.773 266.105C166.338 260.828 158.786 260.173 152.993 261.933C146.999 263.585 145.956 261.228 141.503 258.329C137.328 255.821 131.516 254.368 127.105 257.162C124.176 258.854 120.425 260.155 117.219 258.35C112.654 256.053 105.874 252.17 101.308 256.281C101.313 256.277 101.318 256.272 101.322 256.268C99.1795 258.14 95.825 258.879 93.0661 257.884C90.4402 257.206 87.5847 257.678 85.1292 258.693C77.5576 262.043 76.4584 271.222 84.5076 274.775C95.2246 280.732 102.382 269.037 111.563 276.813C114.921 279.15 119.645 280.248 123.514 278.377C125.756 277.409 127.727 275.462 130.343 275.545C132.873 275.733 134.947 277.261 137.205 278.19C141.14 279.597 145.076 276.711 149.08 277.268C150.307 277.45 151.267 278.426 152.462 278.583C155.225 280.636 158.781 281.659 162.289 281.125ZM158.595 278.435C154.525 278.503 151.698 274.926 147.748 274.85C144.156 274.647 140.458 277.279 137.002 275.749C137.054 275.772 137.106 275.796 137.157 275.82C137.04 275.766 136.923 275.713 136.806 275.658C136.858 275.682 136.909 275.706 136.961 275.73C123.395 267.806 123.939 283.488 110.507 273.626C108.132 272.089 105.09 271.775 102.276 272.042C102.296 272.04 102.316 272.038 102.335 272.036C102.286 272.041 102.236 272.045 102.186 272.05C102.195 272.049 102.203 272.049 102.212 272.048C102.197 272.049 102.182 272.051 102.168 272.052C102.178 272.051 102.188 272.05 102.198 272.049C98.2734 272.299 94.7692 274.585 90.7844 274.277C83.352 274.021 77.2355 267.811 83.8746 261.993C83.8602 262.005 83.8458 262.018 83.8311 262.031C89.7809 257.479 92.714 261.222 98.3325 259.965C102.834 259.05 102.918 255.522 108.091 256.692C113.605 257.468 118.111 262.744 123.993 260.638C127.4 259.716 130.289 256.92 134.082 257.661C141.255 258.6 143.684 264.087 148.861 264.55C152.479 264.747 155.89 263.145 159.501 263.328C164.932 263.329 168.755 267.082 168.682 272.147C168.412 276.273 164.039 278.183 160.121 278.436C160.188 278.43 160.255 278.423 160.321 278.417C159.744 278.45 159.172 278.455 158.595 278.435Z" fill="white"/>
<path d="M141.475 263.846C141.475 263.846 141.475 263.846 141.474 263.847C141.507 263.798 141.528 263.742 141.534 263.686C141.534 263.686 141.534 263.686 141.535 263.686C141.535 263.685 141.535 263.685 141.535 263.685C140.716 261.655 136.005 260.042 133.773 260.08C133.117 260.168 132.235 260.036 131.758 260.538C131.4 261.076 131.925 261.827 132.581 261.81C135.36 261.568 138.551 262.026 140.721 263.763C140.869 264.013 141.294 264.116 141.475 263.846Z" fill="white" fill-opacity="0.5"/>
<path d="M125.947 263.378C126.556 263.139 128.084 262.627 127.1 261.914C126.404 261.774 124.663 261.788 124.93 262.818C125.047 263.198 125.522 263.533 125.947 263.378Z" fill="white" fill-opacity="0.5"/>
<path d="M141.854 273.086C146.306 272.532 146.431 268.838 144.767 270.301C144.779 270.291 144.79 270.281 144.803 270.27C142.197 272.375 138.478 271.546 135.486 270.74C134.86 270.607 133.926 269.791 133.46 270.548C133.069 272.505 140.319 273.329 141.854 273.086Z" fill="white" fill-opacity="0.5"/>
<path d="M129.961 270.224C130.283 269.685 128.987 269.153 128.555 269.185C127.848 269.559 128.581 270.242 129.172 270.193C129.152 270.19 129.132 270.186 129.112 270.182C129.402 270.197 129.728 270.546 129.961 270.224Z" fill="white" fill-opacity="0.5"/>
<path d="M102.145 264.211C106.284 262.936 109.723 260.691 114.074 263.02C114.057 263.012 114.039 263.004 114.022 262.996C114.261 263.137 114.652 263.27 114.765 262.922C114.753 262.21 113.421 262.006 112.885 261.615C107.953 259.268 105.014 262.262 100.533 262.927C99.2153 262.949 93.5368 260.893 93.4182 262.767C93.4744 263.123 93.834 263.452 94.2298 263.434C96.9429 262.955 99.4675 264.688 102.145 264.211Z" fill="white" fill-opacity="0.5"/>
<path d="M93.0194 271.995C94.1835 271.861 97.8835 271.458 97.1276 269.815C96.8733 269.418 96.2867 269.196 95.8603 269.499C92.8086 271.829 84.7481 269.28 88.1207 265.121C88.4999 264.604 90.0415 264.179 89.7916 263.549C89.6836 263.318 89.3741 263.159 89.1271 263.281C85.7591 263.821 84.5388 267.355 86.7357 269.738C88.2791 271.338 90.7593 272.052 93.0194 271.995Z" fill="white" fill-opacity="0.5"/>
<path d="M104.098 269.341C104.089 269.346 104.081 269.352 104.072 269.357C105.547 268.741 107.212 269.385 108.707 269.24C110.446 267.064 105.031 267.918 104.031 268.285C103.001 268.457 103.114 269.616 104.098 269.341Z" fill="white" fill-opacity="0.5"/>
<path d="M161.754 274.956C166.61 273.822 165.629 268.742 161.719 267.109C161.25 266.991 160.289 266.292 160.055 266.97C159.964 267.604 162.287 267.822 162.854 269.253C164.1 271.111 162.98 272.61 160.937 273.207C159.998 273.706 160.77 275.151 161.754 274.956Z" fill="white" fill-opacity="0.5"/>
<path d="M38.3263 294.381C45.7426 294.358 50.8991 285.569 58.6757 288.848C58.6541 288.841 58.6326 288.834 58.611 288.827C58.6618 288.843 58.7111 288.859 58.7614 288.875C58.7554 288.873 58.7492 288.871 58.7433 288.869C58.7521 288.872 58.761 288.875 58.77 288.878C58.7646 288.876 58.7592 288.874 58.7539 288.872C61.6808 289.919 64.3893 291.466 67.3118 292.527C66.9619 292.824 67.4308 293.43 67.8464 293.204C71.9453 294.235 76.7661 293.925 80.3612 291.694C81.676 291.05 83.646 289.914 83.2477 288.302C85.9387 283.134 80.515 278.249 75.1581 277.89C70.9633 277.19 66.8319 278.912 62.6452 278.368C55.9782 277.62 56.6261 271.947 51.2899 269.195C51.332 269.222 51.3742 269.248 51.4161 269.274C47.2408 266.625 41.6242 266.438 37.1165 268.458C37.1201 268.456 37.1238 268.455 37.1274 268.453C37.0893 268.469 37.0512 268.485 37.0131 268.5C37.0139 268.5 37.0146 268.5 37.0154 268.5C33.9277 269.66 31.6127 272.345 28.0674 272.415C23.4882 273.138 19.7593 270 15.353 269.608C9.12698 268.966 0.0991022 272.87 0.735507 279.651C1.80042 285.537 8.75045 288.164 14.5229 287.422C18.8432 287.327 24.3745 284.022 27.6118 288.152C27.6045 288.144 27.5973 288.137 27.59 288.129C27.5945 288.134 27.5989 288.138 27.6031 288.143C27.5677 288.106 27.5325 288.069 27.497 288.033C27.5635 288.101 27.6295 288.17 27.6953 288.239C27.688 288.231 27.6809 288.224 27.6738 288.216C27.709 288.253 27.7438 288.29 27.7791 288.327C27.7748 288.322 27.7706 288.318 27.7664 288.313C30.3095 291.465 33.7926 294.615 38.3263 294.381ZM37.05 292.222C33.5388 291.93 31.1226 289.43 29.0278 287.027C24.5179 281.344 17.022 285.968 10.9958 285.409C7.18946 285.32 3.02511 282.981 2.53982 279.204C2.55522 274.615 8.18219 272.103 12.3873 271.422C17.2183 270.632 21.1428 274.063 25.7952 274.301C32.754 274.916 34.67 270.628 40.6117 269.249C44.9312 268.249 49.7495 269.571 52.7633 272.652C54.8854 275.026 55.9786 278.41 59.3604 279.536C64.0547 281.676 69.0965 279.688 73.9929 279.871C79.4763 280.014 84.0649 284.01 80.1847 288.948C76.6105 291.393 71.7199 291.495 67.6121 290.192C59.4896 287.08 54.5011 283.503 46.2258 288.99C43.459 290.692 40.4968 292.419 37.05 292.222Z" fill="white"/>
<path d="M71.3041 293.6C75.6445 292.987 82.4735 290.89 82.928 286.123C82.8073 285.614 81.9722 285.78 82.3364 286.272C81.7422 287.363 81.0494 288.433 79.9337 289.124C79.9562 289.11 79.9787 289.096 80.0014 289.083C79.9209 289.132 79.8401 289.182 79.7594 289.232C79.7604 289.231 79.7614 289.231 79.7623 289.23C74.1205 292.316 69.8747 293.475 64.062 289.96C63.5007 289.66 62.625 289.208 62.2425 289.968C61.3857 291.823 69.8237 293.963 71.3041 293.6Z" fill="white" fill-opacity="0.5"/>
<path d="M67.3377 292.32C67.8804 291.255 61.7868 289.18 60.7937 288.401C59.8535 288.135 57.889 286.711 57.2403 287.843C57.1441 288.18 57.3412 288.591 57.675 288.748C60.7846 290.11 64.1822 291.339 67.3377 292.32Z" fill="white" fill-opacity="0.5"/>
<path d="M31.0835 277.018C34.2615 276.929 36.6822 274.814 39.4551 273.643C43.7196 272.016 49.6003 272.749 51.9389 276.812C51.9397 276.812 51.9397 276.812 51.9397 276.813C52.2874 277.182 53.0062 276.92 52.8716 276.407C52.8733 276.41 52.8749 276.414 52.8766 276.417C52.8766 276.417 52.8766 276.417 52.8766 276.417C51.336 273.338 47.8745 271.279 44.2258 271.341C44.2266 271.341 44.2276 271.341 44.2284 271.341C44.191 271.339 44.1537 271.338 44.1163 271.336C44.1169 271.336 44.1175 271.336 44.1181 271.336C40.7516 271.058 37.5116 272.493 34.8336 274.279C34.8393 274.275 34.8451 274.272 34.8509 274.268C33.4264 275.353 31.6643 275.554 29.9412 275.851C29.0698 276.578 30.2211 277.307 31.0835 277.018Z" fill="white" fill-opacity="0.5"/>
<path d="M25.5439 277.056C25.9693 276.949 27.1528 277.283 27.0562 276.628C26.81 276.254 26.2165 276.613 25.8205 276.497C25.8286 276.497 25.8365 276.498 25.8448 276.498C23.5544 276.326 21.3282 275.653 19.1427 275.019C19.1691 275.028 19.1953 275.036 19.2224 275.044C18.8208 274.879 18.1739 274.742 18.0884 275.305C17.6605 276.415 24.6076 277.15 25.5439 277.056Z" fill="white" fill-opacity="0.5"/>
<path d="M40.9509 287.855C43.5522 287.465 45.8849 286.133 48.1578 284.948C48.7351 284.573 49.8918 284.48 49.609 283.583C49.1722 282.378 47.7225 283.105 46.9645 283.607C45.57 284.435 44.0414 285.035 42.5847 285.756C38.8329 287.538 35.2181 285.174 32.248 283.153C31.6649 282.696 29.0277 281.46 28.9888 282.704C29.0656 282.87 29.262 282.976 29.4514 282.923C30.2537 282.751 30.9794 283.382 31.5666 283.816C31.565 283.815 31.5633 283.814 31.5618 283.812C31.5883 283.834 31.6149 283.855 31.6418 283.877C31.6268 283.865 31.6122 283.853 31.5974 283.841C34.1586 286.082 37.2091 288.365 40.9509 287.855Z" fill="white" fill-opacity="0.5"/>
<path d="M63.6115 285.42C64.4142 283.476 58.7474 282.564 57.3104 282.817C55.8764 282.906 56.2195 284.146 57.1335 283.916C58.896 283.639 60.7844 284.316 62.2869 285.16C62.6625 285.416 63.1865 285.841 63.6115 285.42Z" fill="white" fill-opacity="0.5"/>
<path d="M74.1776 287.879C76.3285 287.858 79.677 285.448 77.9766 283.392C77.381 283.242 77.9556 284.175 77.2892 284.663C77.3042 284.644 77.3192 284.626 77.3343 284.608C77.229 284.736 77.1244 284.866 77.0191 284.995C77.0255 284.987 77.0318 284.98 77.0382 284.972C77.0118 285.005 76.9856 285.037 76.9591 285.069C76.9756 285.049 76.9929 285.028 77.0095 285.007C76.2239 285.916 74.9147 286.259 73.7243 286.422C72.7333 286.633 73.2889 288.045 74.1776 287.879Z" fill="white" fill-opacity="0.5"/>
<path d="M7.28648 281.086C8.37468 280.766 7.35288 279.637 7.41621 278.933C7.27935 276.623 10.2142 275.669 12.2659 275.821C12.484 275.849 12.6599 275.682 12.6553 275.482C12.5015 274.395 7.59776 275.369 7.22411 276.309C6.3954 277.097 5.85717 278.098 6.08335 279.225C6.18711 279.92 6.25179 281.178 7.28648 281.086Z" fill="white" fill-opacity="0.5"/>
<path d="M187.706 214.211C193.248 214.045 195.156 210.452 198.691 207.267C198.668 207.287 198.645 207.308 198.621 207.328C201.162 205.231 202.396 205.293 205.326 206.547C208.483 207.08 211.863 207.314 214.886 206.072C220.391 203.463 220.673 196.263 216.955 192.15C214.937 189.954 211.949 188.742 208.985 188.115C204.085 187.118 199.367 188.847 194.629 189.755C191.996 189.921 189.077 189.551 187.593 187.275C184.743 184.008 180.848 181.264 176.147 181.394C168.505 180.544 165.428 186.35 158.134 186.123C152.225 185.505 148.822 179.932 142.984 179.093C143.039 179.102 143.094 179.112 143.15 179.122C133.691 177.167 119.387 185.974 127.255 195.313C130.245 198.725 135.231 197.961 139.155 199.602C143.862 201.339 145.327 206.153 149.012 208.981C154.208 212.965 161.179 209.31 165.662 206.024C169.38 203.484 172.948 205.255 175.245 208.483C178.336 211.801 182.759 214.871 187.706 214.211ZM185.561 212.031C180.222 211.875 177.168 207.321 173.684 204.22C169.727 201.459 165.411 203.114 162.059 205.827C158.116 208.223 152.166 210.305 148.797 206.008C143.649 198.846 140.93 197.273 131.86 195.734C123.397 192.614 128.435 183.514 135.36 182.011C139.356 180.622 143.953 180.926 147.501 183.22C149.483 184.493 151.162 186.222 153.437 187.054C159.403 190.051 165.217 187.428 170.388 184.339C176.637 182.028 182.71 183.698 186.544 188.883C188.407 191.545 192.144 192.004 195.288 191.865C200.271 191.046 205.384 189.007 210.42 190.738C220.67 193.584 218.796 206.61 207.422 204.907C205.471 204.924 203.958 203.678 202.143 203.272C194.734 203.502 193.877 212.665 185.561 212.031Z" fill="white"/>
<path d="M188.941 209.301C194.079 208.925 195.19 204.472 199.032 202.293C199 202.313 198.969 202.333 198.937 202.352C200.601 201.34 202.7 200.715 204.683 201.088C204.663 201.085 204.641 201.081 204.621 201.078C209.719 203.288 203.719 196.638 195.704 202.266C193.24 204.509 191.443 207.41 187.587 207.523C186.591 207.798 184.809 206.637 184.434 207.96C184.547 209.701 187.614 209.408 188.941 209.301Z" fill="white" fill-opacity="0.5"/>
<path d="M181.592 204.773C181.625 204.66 181.554 204.553 181.457 204.492C180.888 204.031 180.585 203.381 180.174 202.806C180.182 202.817 180.19 202.828 180.198 202.84C180.161 202.79 180.125 202.739 180.087 202.689C180.106 202.715 180.125 202.74 180.143 202.766C179.379 201.885 178.63 200.8 177.397 200.486C176.762 200.312 175.653 199.927 175.512 200.849C175.425 202.036 177.01 201.868 177.766 202.351C178.562 202.668 181.022 205.292 181.592 204.773Z" fill="white" fill-opacity="0.5"/>
<path d="M160.405 192.619C163.88 192.396 166.447 190.104 169.402 188.709C173.122 187.389 178.469 186.317 181.465 189.435C181.971 190.347 183.097 189.433 182.25 188.79C177.964 184.221 169.649 185.256 164.995 188.823C163.389 189.732 161.729 190.563 159.861 190.871C158.675 191.129 159.327 192.817 160.405 192.619Z" fill="white" fill-opacity="0.5"/>
<path d="M154.13 190.366C154.144 190.252 154.055 190.125 153.933 190.1C152.782 189.721 151.628 189.321 150.528 188.817C150.554 188.829 150.58 188.841 150.605 188.852C148.217 187.466 146.612 184.976 143.825 184.091C142.719 183.847 139.834 182.539 139.618 184.256C139.767 185.963 142.884 185.183 144.152 186.139C146.036 186.985 147.428 188.544 149.228 189.515C150.431 189.892 153.083 190.761 154.13 190.366Z" fill="white" fill-opacity="0.5"/>
<path d="M132.779 189.703C132.657 188.795 133.269 187.615 134.261 187.396C134.252 187.397 134.243 187.397 134.234 187.398C134.916 187.289 134.542 186.316 133.941 186.471C133.951 186.468 133.961 186.466 133.97 186.464C132.488 186.746 130.888 187.971 131.02 189.507C130.975 190.512 132.761 190.871 132.779 189.703Z" fill="white" fill-opacity="0.5"/>
<path d="M155.49 203.038C156.263 203.023 156.418 202.061 155.896 201.642C155.395 201.199 154.631 201.46 154.033 201.218C152.226 200.648 150.717 199.568 149.41 198.292C147.894 196.805 146.11 195.557 143.995 194.932C143.389 194.825 142.007 194.158 141.802 194.988C141.824 195.532 142.434 195.483 142.854 195.515C143.847 195.784 144.773 196.233 145.642 196.751C145.631 196.745 145.621 196.738 145.61 196.731C145.618 196.736 145.627 196.742 145.635 196.747C145.63 196.744 145.626 196.741 145.621 196.738C145.645 196.753 145.669 196.768 145.694 196.783C145.689 196.78 145.684 196.777 145.679 196.774C148.767 199.046 151.049 203.032 155.49 203.038Z" fill="white" fill-opacity="0.5"/>
<path d="M213.225 195.862C213.603 194.279 209.468 192.06 208.044 192.209C207.122 192.995 208.339 193.558 209.138 193.646C210.291 194.072 211.568 194.476 212.415 195.363C212.438 195.73 212.824 196.29 213.225 195.862Z" fill="white" fill-opacity="0.5"/>
<path d="M105.185 118.425C112.292 119.107 116.253 112.23 122.748 111.056C125.042 110.716 126.706 112.447 128.709 113.165C131.045 113.98 133.539 114.474 136.039 114.446C143.784 114.536 151.186 107.976 146.217 100.873C146.224 100.881 146.23 100.89 146.237 100.899C146.184 100.828 146.132 100.756 146.079 100.685C146.11 100.726 146.14 100.768 146.171 100.809C146.094 100.705 146.018 100.601 145.941 100.498C145.963 100.527 145.984 100.556 146.006 100.585C141.551 94.903 135.604 95.1644 128.945 96.4396C126.924 96.618 124.566 96.2943 123.239 94.7125C119.821 90.4569 114.54 86.5971 108.533 87.5036C106.008 88.0557 103.885 89.5986 101.343 90.136C98.5187 91.087 95.8451 89.9856 93.5102 88.4995C90.0196 86.7142 86.2054 85.3612 82.1926 85.2296C71.9635 84.4781 63.4793 94.3001 69.0052 103.139C73.0244 108.008 77.1583 107.736 82.9347 106.353C85.0489 106.211 87.3114 106.863 88.6916 108.426C92.4407 113.74 98.0178 118.409 105.185 118.425ZM104.501 116.533C90.1931 115.746 92.4775 101.797 79.1726 105.331C69.7037 107.42 65.6805 95.4332 72.377 90.1443C75.6895 87.0354 80.6324 86.2744 85.103 87.1276C93.5551 88.4098 96.0439 94.7248 105.201 90.4289C109.399 87.7949 114.71 89.1565 118.279 92.1268C120.433 93.7238 121.649 96.3219 124.137 97.5152C129.281 99.9056 135.17 95.8886 140.289 98.3925C144.557 100.075 147.931 105.48 144.092 109.077C140.196 112.652 134.273 112.628 129.364 111.159C128.593 110.352 127.271 110.135 126.233 109.709C126.277 109.722 126.321 109.736 126.364 109.749C125.626 109.492 124.879 109.26 124.097 109.151C124.144 109.159 124.191 109.168 124.238 109.176C116.457 108 112.298 117.442 104.501 116.533Z" fill="white"/>
<path d="M110.206 111.499C115.858 110.362 117.228 106.998 124.326 106.846C124.315 106.847 124.304 106.848 124.293 106.849C124.317 106.847 124.342 106.844 124.366 106.842C124.357 106.843 124.348 106.844 124.338 106.845C125.98 106.643 127.587 107.122 129.066 107.755C129.654 108.187 130.209 107.728 129.478 107.403C129.479 107.403 129.481 107.404 129.482 107.405C127.372 106.262 125.087 105.573 122.631 105.843C120.259 105.981 117.682 106.266 115.64 107.482C113.861 108.585 111.932 109.542 109.864 110.061C108.949 110.25 109.374 111.556 110.206 111.499Z" fill="white" fill-opacity="0.5"/>
<path d="M105.214 111.392C105.948 111.239 105.555 110.263 104.898 110.433C102.506 110.163 99.6327 109.559 98.3485 107.455C97.8956 106.754 97.5084 106.01 96.8372 105.461C96.0295 104.662 94.8319 105.736 95.5929 106.554C97.7574 110.13 100.826 111.687 105.214 111.392Z" fill="white" fill-opacity="0.5"/>
<path d="M93.0231 103.722C94.1677 102.829 88.8128 99.7894 88.5852 101.454C88.6093 102.724 90.8304 102.399 91.7035 103.082C92.2158 103.183 92.4703 103.938 93.0231 103.722Z" fill="white" fill-opacity="0.5"/>
<path d="M100.85 96.0558C103.918 95.611 106.672 93.8486 109.84 93.9803C110.894 93.9974 111.875 94.4015 112.819 94.7545C113.478 94.6865 113.23 93.8572 112.688 93.7961C112.691 93.7979 112.695 93.7995 112.699 93.8013C110.801 92.8541 108.614 92.5868 106.504 92.9317C104.438 93.4826 102.339 94.0019 100.334 94.724C99.5227 95.0298 100.073 96.1946 100.85 96.0558Z" fill="white" fill-opacity="0.5"/>
<path d="M96.0605 94.6131C96.9002 94.6724 96.9108 93.6805 96.114 93.7964C93.2053 93.6465 91.3275 91.4813 88.8021 90.4921C88.4441 90.3809 88.0546 90.5994 87.959 90.9313C87.7385 91.9025 89.0369 92.0333 89.6718 92.4498C91.6447 93.5562 93.6441 94.8137 96.0605 94.6131Z" fill="white" fill-opacity="0.5"/>
<path d="M78.8777 102.68C79.7621 102.527 83.9183 102.621 83.3924 101.337C83.0103 99.776 79.625 102.241 77.1038 101.203C77.1054 101.204 77.1069 101.204 77.1085 101.205C76.2751 100.97 75.5374 100.544 74.9066 99.9866C74.9374 100.011 74.9675 100.035 74.9984 100.06C70.9536 97.3087 73.4627 93.2784 77.0859 91.5448C77.0815 91.5466 77.0773 91.5483 77.0728 91.5501C78.4598 90.9753 80.1401 90.5473 81.6203 91.019C82.1092 91.1895 82.1968 90.4812 81.7489 90.3891C77.4263 88.8891 71.4851 91.3919 71.2027 96.0066C71.0354 99.7288 75.0918 102.752 78.8777 102.68Z" fill="white" fill-opacity="0.5"/>
<path d="M142.348 106.097C143.654 104.509 143.259 101.396 141.079 100.712C141.091 100.713 141.103 100.713 141.115 100.714C140.394 100.634 140.558 101.671 141.184 101.622C142.461 103.023 141.603 104.222 140.886 105.532C140.868 106.2 141.887 106.723 142.348 106.097Z" fill="white" fill-opacity="0.5"/>
<path d="M221.655 180.386C221.654 180.387 221.653 180.388 221.651 180.388C221.692 180.373 221.731 180.353 221.767 180.329C221.764 180.331 221.761 180.332 221.757 180.334C221.784 180.315 221.809 180.293 221.832 180.267C221.818 180.291 221.793 180.306 221.772 180.326C222.378 178.904 221.601 177.047 221.572 175.503C221.227 172.96 221.028 170.399 220.572 167.869C219.682 161.234 218.603 154.885 210.051 154.367C208.278 154.232 207.272 153.736 206.866 152.042C206.23 150.393 205.63 148.73 205.226 147.017C203.978 142.439 203.525 137.185 200.12 133.488C194.648 128.16 186.286 127.693 182.77 135.176C179.319 141.494 180.97 149.728 176.576 155.593C174.212 157.111 171.602 152.301 166.696 154.851C161.315 158.391 161.196 165.554 160.273 171.118C160.259 173.311 159.194 175.717 159.925 177.815C160.408 178.467 161.645 178.279 161.601 177.395C161.551 175.555 161.92 173.726 162.066 171.895C162.794 165.053 163.855 150.999 174.733 157.187C181.268 158.728 181.596 144.445 182.634 140.492C184.445 131.094 191.869 127.528 199.379 134.974C202.288 139.182 202.442 144.519 203.924 149.236C206.425 157.274 206.772 154.768 213.858 157.167C218.712 159.345 218.737 171.842 220.295 176.72C220.692 177.503 220.545 180.703 221.655 180.386Z" fill="white"/>
<path d="M198.701 142.401C199.512 142.249 198.69 139.82 198.652 139.178C198.59 138.966 198.35 138.795 198.112 138.835C197.452 139.107 198.127 140.02 198.02 140.548C198.017 140.527 198.016 140.507 198.014 140.488C198.179 141.076 197.874 142.253 198.701 142.401Z" fill="white" fill-opacity="0.5"/>
<path d="M195.875 138.164C196.158 137.703 195.88 135.872 195.06 136.014C194.53 136.123 194.715 136.626 194.805 136.972C194.723 137.596 194.989 138.752 195.875 138.164Z" fill="white" fill-opacity="0.5"/>
<path d="M195.636 144.111C195.958 143.612 195.582 142.958 195.705 142.397C195.704 142.421 195.702 142.444 195.702 142.468C195.74 141.978 195.928 141.118 195.161 141.084C194.507 141.184 194.769 142.052 194.6 142.501C194.429 143.179 194.527 144.78 195.636 144.111Z" fill="white" fill-opacity="0.5"/>
<path d="M192.016 136.798C192.066 136.279 191.992 135.752 191.847 135.252C191.736 134.785 190.926 134.865 191.088 135.379C191.119 135.763 190.991 136.152 190.938 136.533C190.816 137.134 191.907 137.498 192.016 136.798Z" fill="white" fill-opacity="0.5"/>
<path d="M191.626 141.431C191.738 140.84 191.71 139.42 190.719 140.005C190.476 140.34 190.709 140.79 190.573 141.173C190.462 141.762 191.516 142.115 191.626 141.431Z" fill="white" fill-opacity="0.5"/>
<path d="M191.373 147.909C191.329 147.031 192.066 145.318 190.647 145.174C189.596 145.268 190.203 146.946 189.991 147.664C189.944 148.394 191.251 148.752 191.373 147.909Z" fill="white" fill-opacity="0.5"/>
<path d="M212.304 167.721C213.249 167.576 212.607 166.403 212.549 165.834C212.35 165.341 212.348 164.225 211.582 164.3C211.08 164.544 211.598 165.151 211.553 165.552C211.706 166.256 211.188 167.615 212.304 167.721Z" fill="white" fill-opacity="0.5"/>
<path d="M210.442 162.036C210.75 161.676 210.261 159.94 209.649 160.038C209.196 160.14 209.429 160.656 209.435 160.962C209.338 161.534 209.669 162.576 210.442 162.036Z" fill="white" fill-opacity="0.5"/>
<path d="M206.662 162.148C207.016 161.512 206.433 160.734 206.431 160.049C206.447 159.803 206.198 159.566 205.933 159.608C205.442 159.768 205.775 160.422 205.662 160.794C205.544 161.426 205.674 162.757 206.662 162.148Z" fill="white" fill-opacity="0.5"/>
<path d="M209.187 167.508C209.143 166.492 208.85 165.471 208.276 164.604C208.278 164.607 208.279 164.609 208.281 164.612C207.131 163.79 208.087 166.874 207.905 167.366C207.874 168.098 209.181 168.359 209.187 167.508Z" fill="white" fill-opacity="0.5"/>
<path d="M210.527 174.587C210.411 173.611 210.64 171.541 209.241 171.434C208.819 171.504 208.656 171.952 208.824 172.293C209.044 172.918 208.9 173.642 208.923 174.302C208.861 175.15 210.392 175.566 210.527 174.587Z" fill="white" fill-opacity="0.5"/>
<path d="M203.751 169.315C204.212 168.966 203.682 166.411 202.943 166.588C202.498 166.91 203.013 167.641 202.843 168.126C202.659 168.708 202.911 169.738 203.751 169.315Z" fill="white" fill-opacity="0.5"/>
<path d="M199.658 170.043C199.478 169.358 200.108 167.976 199.12 167.772C198.473 167.842 198.799 169.337 198.581 169.851C198.471 170.498 199.628 170.808 199.658 170.043Z" fill="white" fill-opacity="0.5"/>
<path d="M199.995 176.219C199.968 175.421 200.397 173.715 199.1 173.72C198.217 174.034 198.843 175.286 198.669 175.984C198.631 176.686 199.876 177.029 199.995 176.219Z" fill="white" fill-opacity="0.5"/>
<path d="M181.195 165.936C181.114 165.162 181.499 163.331 180.427 163.167C180.191 163.206 180.075 163.443 180.144 163.647C180.358 164.33 180.208 165.062 180.223 165.763C180.191 166.277 181.111 166.529 181.195 165.936Z" fill="white" fill-opacity="0.5"/>
<path d="M178.266 162.538C178.386 161.906 178.683 161.093 178.223 160.531C177.977 160.277 177.462 160.302 177.345 160.654C177.347 160.646 177.349 160.638 177.352 160.63C177.226 161.015 177.213 161.434 177.113 161.828C177.114 161.82 177.116 161.811 177.118 161.803C177.112 161.83 177.107 161.857 177.101 161.883C177.102 161.88 177.103 161.877 177.103 161.873C176.722 162.585 177.905 163.399 178.266 162.538Z" fill="white" fill-opacity="0.5"/>
<path d="M172.634 164.181C173.208 163.529 172.968 162.462 173.316 161.68C173.515 161.117 172.497 160.637 172.289 161.285C172.228 162.048 171.01 164.44 172.634 164.181Z" fill="white" fill-opacity="0.5"/>
<path d="M173.104 169.394C172.913 168.636 173.42 166.975 172.284 166.857C172.021 166.902 171.872 167.175 171.96 167.407C172.093 168.017 171.899 168.644 171.883 169.258C171.84 169.955 173.099 170.206 173.104 169.394Z" fill="white" fill-opacity="0.5"/>
<path d="M177.955 173.25C178.768 169.592 175.833 169.763 176.715 171.284C176.85 172.058 176.16 173.344 177.22 173.708C177.552 173.791 177.925 173.594 177.955 173.25Z" fill="white" fill-opacity="0.5"/>
<path d="M183.128 176.477C183.478 176.097 183.199 175.491 183.21 175.032C183.211 175.049 183.213 175.066 183.215 175.083C183.224 174.604 182.378 174.441 182.375 174.994C182.352 175.551 182.078 176.886 183.128 176.477Z" fill="white" fill-opacity="0.5"/>
<path d="M170.754 174.508C170.853 173.679 170.484 171.698 169.258 172.725C169.004 173.225 169.363 173.803 169.269 174.343C169.229 175.192 170.735 175.497 170.754 174.508Z" fill="white" fill-opacity="0.5"/>
<path d="M26.6695 248.911C27.8803 247.876 27.3273 244.173 27.8 242.549C28.6347 238.123 28.9452 233.279 31.3503 229.319C34.064 226.055 39.0532 226.582 42.6289 224.746C48.6599 221.253 47.9453 211.214 50.2935 205.451C54.9337 193.889 66.2059 198.717 67.9217 184.322C67.9118 184.371 67.902 184.42 67.8924 184.469C69.5219 176.553 68.2018 168.363 69.8846 160.431C70.5023 155.947 71.0798 151.448 73.0782 147.28C74.0231 144.906 75.1901 142.523 77.2912 140.849C77.2874 140.852 77.2835 140.856 77.2799 140.859C84.3078 134.273 95.5383 141.813 98.3336 148.916C101.388 156.425 98.7565 164.579 99.8295 172.35C100.759 182.526 109.882 185.831 112.057 194.089C112.783 197.499 112.885 201.008 113.741 204.396C115.425 211.343 120.774 216.575 126.011 221.428C131.78 226.964 137.07 233.806 137.407 241.806C136.848 242.471 138.019 243.541 138.67 242.872C139.258 241.876 138.941 240.614 138.901 239.523C137.739 229.334 129.572 221.833 122.477 214.719C118.957 211.15 116.469 206.657 115.751 201.82C115.156 198.316 115.059 194.68 113.692 191.337C110.72 184.808 103.177 180.574 102.326 173.099C100.983 162.119 105.585 149.434 95.1429 141.149C87.567 134.661 77.8566 134.043 72.6645 143.397C70.4725 147.655 68.8177 152.172 68.3301 156.897C67.5112 161.585 66.7335 166.275 66.682 171.036C66.2388 177.413 66.8333 184.39 63.4643 190.163C61.4117 193.517 57.2138 194.7 54.0399 196.889C49.3587 200.246 47.3809 205.734 46.5234 211.009C46.5245 211.003 46.5257 210.998 46.5268 210.992C45.5089 214.69 45.199 219.09 42.3419 222C41.0069 223.177 39.2086 223.597 37.4547 223.882C33.0949 224.718 28.5335 226.882 27.7261 231.384C26.4239 235.874 25.5613 240.471 25.0159 245.094C24.7695 246.497 24.0815 249.593 26.6695 248.911Z" fill="white"/>
<path d="M90.5839 155.379C90.9009 153.784 90.4281 151.977 89.1191 150.884C87.8998 150.677 88.7324 151.864 88.9161 152.375C88.9055 152.348 88.8951 152.321 88.8845 152.295C89.3161 153.197 89.2372 154.169 89.1829 155.13C89.1334 155.87 90.4568 156.235 90.5839 155.379Z" fill="white" fill-opacity="0.5"/>
<path d="M91.2807 164.761C91.7267 164.248 91.6357 159.653 90.5598 159.858C90.2843 159.905 90.1821 160.179 90.2668 160.405C90.4857 161.276 89.496 165.516 91.2807 164.761Z" fill="white" fill-opacity="0.5"/>
<path d="M84.112 159.074C84.1622 158.512 84.1909 157.937 84.0431 157.385C84.0442 157.391 84.0454 157.396 84.0465 157.401C83.8858 156.942 83.8353 156.084 83.1329 156.146C82.8561 156.192 82.705 156.477 82.7937 156.721C83.4084 157.538 82.504 159.029 83.4966 159.458C83.7736 159.527 84.0889 159.363 84.112 159.074Z" fill="white" fill-opacity="0.5"/>
<path d="M85.8018 172.417C86.0056 172.27 86.048 172.04 86.0507 171.813C86.0501 171.821 86.0497 171.829 86.0492 171.836C86.0263 170.787 86.3343 167.855 84.674 167.956C83.8708 168.281 84.5825 169.058 84.5821 169.613C84.7259 170.522 83.9996 173.039 85.8018 172.417Z" fill="white" fill-opacity="0.5"/>
<path d="M90.1602 177.439C90.0477 176.602 89.9411 174.793 88.6706 174.975C87.7002 175.447 88.8228 176.512 88.6598 177.273C88.635 178.131 90.1386 178.438 90.1602 177.439Z" fill="white" fill-opacity="0.5"/>
<path d="M96.1629 171.124C96.0664 170.228 95.918 167.568 94.5462 167.809C93.8633 168.343 94.9345 169.154 94.798 169.859C94.9033 170.483 94.6136 171.531 95.5259 171.678C95.8722 171.719 96.1723 171.458 96.1629 171.124Z" fill="white" fill-opacity="0.5"/>
<path d="M96.1398 158.056C97.019 157.915 96.4272 156.792 96.3827 156.249C96.2012 155.743 96.2632 154.669 95.4195 154.822C94.8325 155.107 95.3178 155.874 95.3088 156.351C95.4882 156.924 95.2572 158.002 96.1398 158.056Z" fill="white" fill-opacity="0.5"/>
<path d="M89.1314 146.071C90.3981 145.982 88.742 142.525 87.7976 143.229C87.2777 143.664 87.9271 144.148 88.141 144.556C88.5187 145.036 88.2939 146.041 89.1314 146.071Z" fill="white" fill-opacity="0.5"/>
<path d="M82.6922 146.674C82.7321 145.874 82.555 145.092 82.2125 144.36C82.1111 144.106 81.7742 143.929 81.4945 144.021C80.8148 144.329 81.4964 145.056 81.5549 145.534C81.7422 146.059 81.3907 146.979 82.1825 147.118C82.4634 147.151 82.6926 146.942 82.6922 146.674Z" fill="white" fill-opacity="0.5"/>
<path d="M77.6211 158.344C77.6746 157.401 78.197 155.402 76.8122 155.197C76.4853 155.252 76.3677 155.571 76.4586 155.839C76.4553 155.831 76.4522 155.822 76.449 155.814C76.9366 156.737 75.6156 158.294 76.8925 158.798C77.2243 158.883 77.5797 158.685 77.6211 158.344Z" fill="white" fill-opacity="0.5"/>
<path d="M78.5405 167.491C78.4314 166.775 78.5222 165.284 77.4698 165.272C76.5487 165.603 77.5266 166.702 77.3967 167.363C77.379 168.017 78.5213 168.252 78.5405 167.491Z" fill="white" fill-opacity="0.5"/>
<path d="M69.8135 207.623C69.8376 206.624 69.7446 205.617 69.9361 204.628C70.1096 204.183 69.7864 203.654 69.2795 203.598C68.1047 203.446 68.6366 206.709 68.5274 207.48C68.5038 208.214 69.7877 208.481 69.8135 207.623Z" fill="white" fill-opacity="0.5"/>
<path d="M76.2068 209.237C76.1354 208.204 76.4545 205.046 74.9024 205.062C73.8211 205.412 74.8724 206.662 74.7515 207.412C74.9265 208.166 74.4062 209.407 75.4201 209.727C75.7733 209.815 76.1787 209.605 76.2068 209.237Z" fill="white" fill-opacity="0.5"/>
<path d="M71.5929 198.558C71.6106 197.566 72.3467 196.202 71.4433 195.423C71.1184 195.181 70.6227 195.188 70.3586 195.496C70.3668 195.486 70.3753 195.476 70.3838 195.466C70.0117 196.259 70.2681 197.292 70.0234 198.172C69.8696 199.048 71.4002 199.579 71.5929 198.558Z" fill="white" fill-opacity="0.5"/>
<path d="M72.6301 215.108C72.7435 214.251 72.9288 210.706 71.2366 212.087C71.2568 212.99 71.3708 213.938 71.3124 214.874C71.2772 215.571 72.5065 215.913 72.6301 215.108Z" fill="white" fill-opacity="0.5"/>
<path d="M71.6107 223.639C71.3889 222.616 72.2554 220.722 70.8905 220.305C69.5563 220.311 70.5153 222.678 70.3546 223.499C70.3373 224.216 71.5866 224.476 71.6107 223.639Z" fill="white" fill-opacity="0.5"/>
<path d="M81.2325 219.452C81.2373 218.368 81.6138 215.5 80.2665 215.148C80.0249 215.189 79.8919 215.438 79.9701 215.651C80.3961 216.789 80.2715 218.02 80.2197 219.203C80.1216 219.77 81.1197 220.111 81.2325 219.452Z" fill="white" fill-opacity="0.5"/>
<path d="M60.7087 211.117C60.8885 210.18 61.5509 208.078 60.0667 207.903C59.7402 207.957 59.5674 208.291 59.6688 208.577C59.8936 209.252 59.6313 209.973 59.526 210.65C59.5262 210.65 59.5264 210.648 59.5265 210.648C59.3044 211.308 60.4484 211.871 60.7087 211.117Z" fill="white" fill-opacity="0.5"/>
<path d="M62.0374 224.357C62.0082 223.42 62.6719 221.518 61.3871 221.195C60.4175 221.419 61.2351 222.743 60.9842 223.419C60.9561 223.89 60.7677 224.579 61.4185 224.744C61.7001 224.815 62.0032 224.647 62.0374 224.357Z" fill="white" fill-opacity="0.5"/>
<path d="M106.424 216.71C107.504 216.41 106.023 214.342 105.888 213.635C105.67 213.08 104.745 213.327 105.023 213.916C105.542 214.596 105.558 216.604 106.424 216.71Z" fill="white" fill-opacity="0.5"/>
<path d="M103.72 206.538C104.925 206.552 104.072 203.612 103.029 203.939C102.313 204.072 102.44 204.833 102.711 205.289C102.886 205.797 102.98 206.553 103.72 206.538Z" fill="white" fill-opacity="0.5"/>
<path d="M98.3874 200.168C98.6225 199.194 98.9422 196.75 97.3227 196.904C96.6393 197.333 97.561 197.956 97.3891 198.527C97.4405 199.169 96.8187 200.122 97.6529 200.482C97.9345 200.59 98.3235 200.479 98.3874 200.168Z" fill="white" fill-opacity="0.5"/>
<path d="M100.025 211.273C100.04 210.451 99.8886 208.511 98.6104 208.823C97.8997 209.36 98.8981 210.359 98.6687 211.122C98.6406 211.898 100.001 212.177 100.025 211.273Z" fill="white" fill-opacity="0.5"/>
<path d="M101.001 223.545C100.788 222.487 101.636 219.594 100.429 219.185C100.083 219.136 99.8285 219.456 99.903 219.76C99.9823 220.978 99.7051 222.187 99.7626 223.408C99.7338 224.113 100.983 224.369 101.001 223.545Z" fill="white" fill-opacity="0.5"/>
<path d="M109.959 224.181C110.85 223.927 110.167 222.858 110.019 222.301C109.834 221.817 109.692 221.032 108.964 221.13C108.615 221.189 108.419 221.55 108.535 221.859C108.982 222.577 108.809 224.175 109.959 224.181Z" fill="white" fill-opacity="0.5"/>
<path d="M114.006 220.786C114.848 220.535 114.16 219.54 114.048 219.006C113.758 218.428 113.642 217.235 112.698 217.444C111.768 217.931 112.887 218.987 113.022 219.661C113.201 220.113 113.32 220.879 114.006 220.786Z" fill="white" fill-opacity="0.5"/>
<path d="M117.49 233.792C118.209 233.159 117.147 229.191 115.903 230.64C115.729 231.27 116.335 231.853 116.343 232.495C116.247 233.153 116.569 234.279 117.49 233.792Z" fill="white" fill-opacity="0.5"/>
<path d="M111.253 239.063C111.139 238.109 110.733 235.411 109.324 235.663C108.207 236.233 109.55 237.435 109.643 238.244C109.743 238.809 109.723 239.619 110.513 239.707C110.908 239.752 111.278 239.451 111.253 239.063Z" fill="white" fill-opacity="0.5"/>
<path d="M96.3688 233.507C96.4144 232.688 96.585 230.94 95.3687 230.893C95.0257 230.951 94.8632 231.291 94.9587 231.589C95.1447 232.08 95.2082 232.594 95.167 233.113C95.1685 233.086 95.1701 233.058 95.1714 233.032C94.9191 233.762 96.1549 234.395 96.3688 233.507Z" fill="white" fill-opacity="0.5"/>
<path d="M11.3216 194.615C12.8531 189.029 10.7764 183.181 12.5788 177.666C12.5738 177.679 12.5688 177.693 12.5638 177.706C16.2621 169.941 23.5759 178.83 24.5521 159.681C24.549 159.733 24.5469 159.784 24.5438 159.835C24.549 159.74 24.5537 159.645 24.5589 159.549C24.5558 159.6 24.5536 159.652 24.5506 159.703C24.5663 159.396 24.5821 159.088 24.5979 158.78C24.5956 158.831 24.5927 158.883 24.5904 158.934C25.0004 154.806 24.559 148.961 29.484 147.142C36.264 147.187 38.3755 154.411 38.9166 159.606C38.9107 159.547 38.9053 159.487 38.8993 159.427C38.9203 166.764 40.2364 172.929 44.8695 179.003C46.3329 181.256 47.0111 183.884 47.419 186.469C47.2325 186.797 47.6977 187.225 48.0379 186.993C48.0387 186.993 48.0386 186.993 48.0394 186.993C48.0248 187.002 48.0107 187.01 47.9961 187.019C49.5973 181.538 44.7731 176.488 43.0252 171.453C41.1895 166.866 42.1058 161.874 41.1787 157.141C40.2276 152.948 38.6795 148.497 34.4951 146.213C30.3156 144.046 26.9749 144.448 24.3238 148.351C22.9201 150.439 22.8756 153.048 22.5316 155.429C21.9231 159.765 22.6236 169.667 17.3703 171.34C9.82278 173.371 9.35751 178.684 9.82375 185.135C10.0948 188.044 9.91422 190.988 9.35674 193.859C9.01832 194.935 10.891 195.861 11.3216 194.615Z" fill="white"/>
<path d="M32.3211 161.18C32.2324 160.074 32.4322 158.902 32.0487 157.839C31.888 157.381 31.0951 157.246 30.9407 157.777C30.984 158.361 31.0491 158.958 30.9834 159.559C31.0604 160.27 30.665 161.532 31.682 161.736C32.0279 161.777 32.334 161.516 32.3211 161.18Z" fill="white" fill-opacity="0.5"/>
<path d="M37.5488 168.755C38.1985 167.794 37.4508 166.432 37.1474 165.429C36.819 164.579 35.4005 164.958 35.8246 165.859C36.5385 166.67 35.7982 169.405 37.5488 168.755Z" fill="white" fill-opacity="0.5"/>
<path d="M36.6416 156.085C36.6341 155.564 36.3739 155.096 36.1868 154.617C36.192 154.63 36.1968 154.643 36.2018 154.656C36.1203 153.911 34.9216 153.874 35.1854 154.713C35.5646 155.311 35.1286 156.427 36.052 156.598C36.3691 156.634 36.6584 156.394 36.6416 156.085Z" fill="white" fill-opacity="0.5"/>
<path d="M29.0141 153.839C29.1879 153.051 29.8771 151.329 28.4516 151.327C27.692 151.618 27.8664 152.752 27.6131 153.399C27.4602 154.132 28.7542 154.665 29.0141 153.839Z" fill="white" fill-opacity="0.5"/>
<path d="M28.2007 166.413C28.1865 165.975 28.1984 165.537 28.2121 165.099C28.2111 165.117 28.2102 165.135 28.209 165.153C28.2229 164.334 28.6352 162.648 27.2835 162.679C27.0842 162.712 26.9158 162.837 26.8353 163.01C26.8211 164.099 26.7951 165.247 26.9195 166.358C26.9724 167.048 28.2027 167.218 28.2007 166.413Z" fill="white" fill-opacity="0.5"/>
<path d="M32.959 171.862C32.9166 171.051 33.0169 169.276 31.7212 169.448C30.8551 169.864 31.7953 170.855 31.6479 171.549C31.6475 171.545 31.6471 171.541 31.6467 171.538C31.4964 172.348 32.8808 172.843 32.959 171.862Z" fill="white" fill-opacity="0.5"/>
<path d="M40.1616 182.927C40.0031 182.02 40.1071 179.749 38.7376 179.82C37.9441 180.19 38.7792 181.045 38.8235 181.618C39.0578 182.198 38.7819 183.24 39.6133 183.404C39.9075 183.439 40.1789 183.215 40.1616 182.927Z" fill="white" fill-opacity="0.5"/>
<path d="M29.0347 188.381C30.0214 187.623 29.8328 185.934 29.5244 184.872C29.2054 183.78 27.4327 184.102 27.9322 185.26C28.4714 186.213 27.0842 188.549 29.0347 188.381Z" fill="white" fill-opacity="0.5"/>
<path d="M23.4438 189.586C23.9542 186.031 20.7889 185.096 21.3471 187.278C21.346 187.276 21.3448 187.274 21.3437 187.272C21.741 187.882 21.8186 188.589 21.7783 189.29C21.7237 190.17 23.2814 190.604 23.4438 189.586Z" fill="white" fill-opacity="0.5"/>
<path d="M233.953 76.4391C235.479 76.1202 234.692 74.0782 235.048 73.0229C236.502 71.6626 226.314 71.0128 225.266 70.6423C216.047 69.3608 206.812 68.1964 197.549 67.2172C197.563 67.2187 197.578 67.2201 197.592 67.2214C197.244 67.1855 196.896 67.1488 196.547 67.1122C196.587 67.1164 196.627 67.1207 196.666 67.1249C193.17 66.7675 189.667 66.4605 186.166 66.1482C186.23 65.6788 186.152 64.9553 185.487 64.9869C176.545 63.5591 167.362 63.6018 158.336 62.7637C158.183 61.6318 156.486 61.6505 155.544 61.5474C155.038 61.6029 154.344 61.4339 154.053 61.935C153.316 63.9406 153.364 66.1273 153.231 68.2247C153.345 69.7282 152.473 71.8866 153.594 73.0867C154.513 73.7057 156.606 74.7512 156.677 72.9303C156.755 72.8997 156.83 72.8535 156.89 72.7992C163.855 72.7543 170.815 72.961 177.779 73.1454C179.18 72.8394 186.391 74.2245 185.914 72.4738C195.662 72.6621 205.348 73.7028 215.049 74.5299C215.013 74.5257 214.976 74.5221 214.94 74.518C218.228 74.854 221.495 75.3523 224.792 75.6214C224.755 75.6178 224.717 75.6137 224.68 75.61C227.759 75.9508 230.851 76.3926 233.953 76.4391ZM184.103 72.3881C184.103 72.3895 184.103 72.391 184.103 72.3922C184.018 72.3881 183.933 72.3823 183.849 72.3753C183.933 72.3796 184.018 72.3839 184.103 72.3881ZM156.227 63.289C156.204 63.3753 156.181 63.4617 156.158 63.547C156.16 63.4546 156.164 63.363 156.17 63.2708C156.189 63.2771 156.208 63.2834 156.227 63.289Z" fill="#FA7F08"/>
<path d="M232.843 304.518C233.588 293.651 233.725 282.683 234.667 271.789C240.487 272.668 246.006 273.706 251.971 274.139C256.999 274.158 262.199 274.857 267.15 274.848C266.946 279.764 266.904 284.639 266.471 289.601C266.232 292.382 266.134 295.869 265.958 298.97C265.807 301.122 265.133 304.666 268.324 304.904C270.924 304.787 270.462 301.965 270.661 300.225C270.901 297.027 270.949 294.188 271.246 291.097C272.23 277.051 272.488 262.78 273.651 248.453C273.998 241.18 274.951 233.928 275.393 226.677C275.876 218.211 276.789 209.748 277.251 201.292C278.119 190.774 277.784 180.223 278.164 169.665C278.571 160.763 279.512 151.836 279.766 143.045C280.281 135.969 280.072 127.882 280.457 120.548C281.489 107.818 282.776 95.3859 283.336 82.5405C282.683 82.2876 282.049 81.9914 281.419 81.6914C281.453 81.7076 281.486 81.7239 281.519 81.7401C280.61 81.2963 279.684 80.878 278.737 80.5111C278.262 91.6569 277.411 102.788 276.401 113.897C275.487 122.165 275.732 131.397 275.308 139.901C274.899 148.912 274.141 157.667 273.536 166.732C273.188 176.541 273.261 186.379 272.603 196.203C264.525 195.109 256.308 196.768 248.294 195.495C248.15 197.038 248.118 198.587 248.016 200.132C255.225 200.377 262.447 200.665 269.646 200.933C270.323 201.467 271.277 201.667 272.131 201.868C271.193 213.326 270.443 224.547 269.565 235.902C258.943 233.41 247.686 234.242 236.922 232.58C237.385 222.184 236.391 210.698 236.442 200.394C236.356 192.778 237.036 183.622 236.993 176.369C237.558 160.217 236.961 143.875 237.97 127.788C238.43 122.712 238.455 117.535 238.462 112.439C238.53 105.339 239.477 97.0222 239.829 89.6876C238.233 89.229 236.614 88.8531 235.028 88.3642C234.306 99.1947 233.435 110.06 233.501 120.813C232.203 135.922 232.482 151.18 232.133 166.535C231.656 184.624 230.884 201.939 231.773 220.006C232.099 241.106 229.874 261.56 228.521 282.704C228.304 289.254 227.893 295.695 227.745 302.255C227.124 305.126 231.159 308.104 232.843 304.518ZM269.065 241.067C268.426 251.166 267.733 261.304 267.312 271.421C256.674 269.287 245.591 270.06 235.059 267.264C236.213 257.007 236.568 246.912 236.863 236.602C241.048 237.061 245.261 237.242 249.465 237.432L249.441 237.43C256.108 237.538 262.707 238.332 269.349 238.033C269.244 239.054 269.142 240.054 269.065 241.067Z" fill="#FA7F08"/>
<path d="M244.371 197.226C244.432 196.493 244.481 195.76 244.536 195.028C240.045 193.977 240.528 199.418 244.133 199.923C244.22 199.025 244.297 198.125 244.371 197.226Z" fill="#FA7F08"/>
<path d="M241.969 56.6693C242.868 45.6994 243.3 35.1507 244.283 24.4801C244.688 16.7382 246.202 8.75363 244.683 1.10617C240.942 -2.95622 241.091 9.83363 240.62 11.4434C238.543 27.0934 238.131 42.2023 236.855 57.9291C238.454 58.5843 240.283 58.7529 241.739 59.715C241.809 58.7593 241.885 57.7494 241.969 56.6693Z" fill="#FA7F08"/>
<path d="M283.898 70.9291C283.952 60.8233 285.065 51.0624 285.706 41.0471C285.903 29.5993 286.513 18.1613 287.371 6.75183C287.75 2.07594 280.239 2.09127 282.46 6.94629C280.858 17.673 281.57 28.4351 281.371 39.1763C280.699 49.494 279.334 59.9675 279.331 70.2728C281.005 70.4698 282.476 71.2865 283.891 72.096C283.894 71.7041 283.896 71.3141 283.898 70.9291Z" fill="#FA7F08"/>
<path d="M273.504 168.731C275.298 168.853 276.944 167.151 275.248 165.832C273.209 164.781 270.651 164.861 268.399 164.398C263.104 163.531 257.741 163.172 252.435 162.408C252.272 164.012 251.996 165.622 251.396 167.138C258.704 168.111 266.13 168.517 273.504 168.731Z" fill="#FA7F08"/>
<path d="M247.966 166.438C247.99 166.302 248.014 166.165 248.038 166.029C248.029 166.082 248.02 166.134 248.011 166.187C248.026 166.1 248.041 166.013 248.056 165.926C248.047 165.978 248.038 166.031 248.029 166.084C248.271 164.642 248.668 163.21 249.373 161.903C247.049 161.683 244.697 161.399 242.376 161.315C239.742 161.773 240.258 165.394 242.485 166.076C244.212 166.61 246.07 166.533 247.863 166.699C247.897 166.611 247.931 166.525 247.966 166.438Z" fill="#FA7F08"/>
<path d="M276.634 132.205C277.647 132.313 278.445 131.44 278.14 130.519C277.169 128.386 273.748 128.655 271.682 128.119C271.611 128.556 271.627 128.998 271.596 129.439C271.596 129.438 271.597 129.438 271.597 129.438C271.532 130.252 271.406 131.062 271.21 131.857C273.018 131.961 274.826 132.102 276.634 132.205Z" fill="#FA7F08"/>
<path d="M268.953 127.65C266.56 127.642 266.711 130.856 268.674 131.465C268.769 130.194 268.863 128.922 268.953 127.65Z" fill="#FA7F08"/>
<path d="M269.906 127.782C269.893 127.779 269.88 127.777 269.867 127.775C269.864 127.833 269.858 127.889 269.859 127.947C269.874 127.892 269.889 127.837 269.906 127.782Z" fill="#FA7F08"/>
<path d="M279.257 92.0373C282.038 87.4606 265.675 87.3569 262.891 86.7286C262.782 88.138 262.467 89.5266 262.393 90.9385C265.556 91.3421 268.741 91.545 271.917 91.8246C274.207 91.8589 277.249 93.3624 279.257 92.0373Z" fill="#FA7F08"/>
<path d="M259.441 89.9601C259.44 89.8086 259.479 89.6621 259.511 89.5148C259.505 89.5458 259.498 89.5768 259.491 89.6078C259.722 88.5273 259.979 87.4504 260.195 86.3668C257.068 85.7879 257.056 90.046 259.739 90.5551C259.559 90.4126 259.443 90.199 259.441 89.9601Z" fill="#FA7F08"/>
<path d="M260.044 87.0991C260.039 87.1247 260.033 87.1494 260.028 87.175C260.034 87.1503 260.039 87.1247 260.044 87.0991Z" fill="#FA7F08"/>
<path d="M273.232 58.0998C275.965 57.7503 278.978 57.8259 281.532 56.8868C282.533 56.0832 281.63 54.6153 280.443 54.5681C277.596 54.1203 274.712 54.5237 271.847 54.4303C265.772 53.9073 259.667 53.7112 253.602 53.1139C250.117 52.5401 246.62 52.1368 243.097 51.8631C241.134 50.8818 238.869 52.2795 239.85 54.3772C241.167 56.8249 244.81 55.939 247.215 56.3644C255.807 57.6827 264.538 57.9755 273.232 58.0998Z" fill="#FA7F08"/>
<path d="M280.47 58.0487C281.464 58.0566 282.088 57.0015 281.429 56.2567C280.289 55.3601 278.456 55.5661 277.051 55.179C269.849 54.0907 262.589 53.1143 255.28 53.1428C250.837 52.9885 246.527 51.7325 242.063 51.6957C239.749 51.8133 240.36 55.0668 242.392 55.1848C244.183 55.315 245.991 55.2849 247.773 55.5402C253.007 56.6386 258.336 56.2505 263.64 56.6088C269.275 56.8132 274.846 57.8228 280.47 58.0487Z" fill="#FA7F08"/>
<path d="M279.94 23.4924C281.374 23.6851 283.473 22.5046 282.097 21.1167C282.097 21.1165 282.098 21.1165 282.098 21.1163C281.127 20.2718 279.664 20.3401 278.436 20.1121C275.396 19.7156 272.334 19.515 269.285 19.2031C261.028 18.3042 252.798 17.3572 244.485 17.1113C240.781 15.8459 240.215 20.8698 243.655 21.3572C244.899 21.3941 246.142 21.3978 247.387 21.4726C247.346 21.4708 247.304 21.469 247.263 21.4672C258.182 21.6945 269.011 23.3043 279.94 23.4924Z" fill="#FA7F08"/>
<path d="M241.47 77.9537C245.476 77.6775 243.518 74.3975 240.518 75.0781C238.914 75.4906 239.343 78.2622 241.47 77.9537ZM241.152 77.1549C241 77.143 240.851 77.1037 240.708 77.0543C241.361 76.9338 241.658 76.1648 241.372 75.6326C241.51 75.6736 241.644 75.7248 241.778 75.7742L241.771 75.7711C242.218 75.9337 242.702 76.1105 242.988 76.4914C242.628 77.0927 241.82 77.1739 241.152 77.1549Z" fill="white" fill-opacity="0.9"/>
<path d="M241.102 78.6877C241.227 78.4646 240.868 78.5389 240.747 78.4615C240.752 78.4629 240.759 78.4651 240.764 78.4671C240.517 78.3722 240.298 78.225 240.109 78.0504C240.112 78.0531 240.114 78.0556 240.117 78.0583C240.099 78.0414 240.082 78.0251 240.065 78.0091C240.07 78.0139 240.076 78.0197 240.082 78.0253C239.942 77.8947 239.807 77.758 239.714 77.594C239.5 77.3101 239.16 77.6965 239.421 77.8934C239.898 78.2181 240.45 78.8944 241.102 78.6877Z" fill="white" fill-opacity="0.5"/>
<path d="M243.149 81.8416C243.673 81.6342 243.144 80.9884 243.077 80.6337C243.118 80.3433 242.773 80.0144 242.469 80.1779H242.468C242.211 80.331 242.215 80.6784 242.426 80.8713C242.665 81.1671 242.679 81.8225 243.149 81.8416Z" fill="white" fill-opacity="0.5"/>
<path d="M241.558 81.3492C242.053 81.1533 241.436 80.5151 241.341 80.2028C241.374 80.0989 241.219 80.0157 241.149 80.1104C241.075 80.278 241.195 80.4671 241.234 80.633L241.234 80.6325C241.346 80.8565 241.216 81.3017 241.558 81.3492Z" fill="white" fill-opacity="0.5"/>
<path d="M240.155 80.9454C240.599 80.9711 240.151 79.8738 239.982 79.7818C239.676 79.7363 239.841 81.0254 240.155 80.9454Z" fill="white" fill-opacity="0.5"/>
<path d="M249.066 239.582C251.843 238.173 244.277 234.404 243.28 233.193C245.053 225.789 244.179 218.108 244.75 210.579C245.399 192.541 245.83 174.225 251.534 156.848C259.943 159.385 268.829 160.525 276.965 163.86C276.929 163.846 276.894 163.832 276.858 163.819C279.669 165.132 282.629 166.321 285.247 167.932C286.286 170.866 285.449 174.144 284.487 177.012C284.496 176.986 284.505 176.96 284.515 176.934C282.693 181.641 280.011 185.981 277.656 190.461C275.702 194.281 273.864 198.167 271.309 201.672C270.962 202.702 272.256 203.457 272.741 204.271C274.157 205.835 275.383 203.096 276.49 202.426C277.921 205.752 280.837 208.596 284.5 209.741C284.469 209.729 284.437 209.717 284.406 209.705C288.06 211.519 289.077 210.479 286.507 207.391C285.465 205.958 284.688 204.387 283.782 202.882C287.071 196.919 290.28 190.922 293.514 184.934C295.758 181.478 297.363 177.724 299.114 174.037C300.228 171.626 301.455 169.25 301.958 166.645C306.216 154.294 281.733 150.526 273.196 146.855C273.182 146.86 273.167 146.865 273.152 146.87C273.162 146.866 273.173 146.862 273.183 146.859C273.171 146.863 273.158 146.867 273.145 146.872C273.158 147.159 272.885 147.395 272.598 147.455C266.861 149.827 260.288 150.166 254.076 150.496C252.521 150.63 250.659 150.735 249.235 150.165C247.638 148.499 246.111 146.782 244.643 145.013C244.232 147.029 244.224 149.287 243.256 151.124C239.777 152.074 235.834 151.922 232.229 151.604C231.512 161.049 232.544 170.57 232.731 180.032C233.084 188.451 233.014 196.898 233.112 205.325C232.89 210.29 232.946 215.26 232.674 220.225C232.49 225.741 231.793 231.249 232.174 236.771C232.335 238.404 234.713 237.902 235.933 238.153C237.142 237.804 236.955 236.177 237.264 235.235C240.22 238.182 244.88 239.336 249.066 239.582ZM273.454 203.084C273.45 203.081 273.447 203.077 273.443 203.073C273.525 202.996 273.603 202.915 273.677 202.832C273.604 202.917 273.53 203.002 273.454 203.084Z" fill="white" fill-opacity="0.9"/>
<path d="M260.234 96.8916C260.254 96.8432 260.262 96.792 260.263 96.7393C260.022 96.7043 259.782 96.6602 259.541 96.6273C259.666 96.8483 260.039 97.2635 260.234 96.8916Z" fill="white" fill-opacity="0.5"/>
<path d="M241.334 95.5105C241.455 95.409 241.578 95.309 241.704 95.2118C241.086 95.129 240.465 95.0875 239.841 95.0836C239.778 95.1806 239.718 95.2798 239.66 95.3796C239.864 95.424 240.071 95.462 240.279 95.493H240.278C240.596 95.5343 240.917 95.5562 241.234 95.6016C241.268 95.5704 241.301 95.5408 241.334 95.5105Z" fill="white" fill-opacity="0.5"/>
<path d="M240.294 95.4954C240.294 95.4954 240.293 95.4952 240.292 95.495C240.293 95.4952 240.295 95.4954 240.296 95.4955C240.295 95.4955 240.295 95.4954 240.294 95.4954Z" fill="white" fill-opacity="0.5"/>
<path d="M240.287 95.4943C240.287 95.4943 240.286 95.4943 240.286 95.4943C240.288 95.4946 240.29 95.4948 240.292 95.4951C240.29 95.4948 240.289 95.4944 240.287 95.4943Z" fill="white" fill-opacity="0.5"/>
<path d="M285.666 81.9044C285.882 81.5584 286.199 81.281 286.482 80.9842C285.266 80.3866 284.019 79.8496 282.735 79.3937C282.768 79.4064 282.801 79.4192 282.833 79.4318C281.284 78.8318 279.543 78.6996 278.051 77.9654C278.079 77.9612 278.107 77.9576 278.136 77.9535C278.113 77.9571 278.091 77.9598 278.069 77.9634C278.721 77.8133 279.36 77.9569 280.001 78.0361C281.447 77.3257 279.004 76.5542 278.43 76.1483C279.272 75.9982 280.052 76.5506 280.854 76.4705C281.833 75.7143 280.21 75.2402 279.585 75.0442C279.589 75.0456 279.592 75.047 279.595 75.0483C279.578 75.0407 279.561 75.0355 279.544 75.0286C279.549 75.0308 279.555 75.0328 279.561 75.035C279.21 74.8762 278.771 74.7689 278.542 74.4572C278.601 74.3911 278.68 74.3462 278.76 74.3035C278.742 74.3119 278.724 74.3197 278.707 74.3275C279.612 74.1153 280.557 74.698 281.463 74.7566C283.153 73.8191 279.738 73.2099 279.318 72.5145C282.884 72.5061 285.526 75.2918 288.344 76.9898C288.343 76.9898 288.343 76.9898 288.343 76.9898C288.343 76.9898 288.343 76.9906 288.344 76.9906C288.731 77.2579 289.106 77.5352 289.467 77.8321C289.688 77.5952 289.907 77.3517 290.163 77.1457C287.834 75.1767 285.207 73.4203 282.396 72.1143C281.087 71.4329 276.782 70.9493 278.954 73.3321C277.915 73.2632 277.25 74.4662 278.081 75.1416C276.867 75.1544 277.111 76.5059 277.952 76.9081C275.726 77.3279 277.516 79.277 278.881 79.5498C281.126 80.4153 283.38 81.251 285.56 82.2645C285.561 82.1367 285.596 82.0094 285.666 81.9044Z" fill="white" fill-opacity="0.9"/>
<path d="M198.072 72.1691C198.293 70.3625 199.31 67.9687 197.772 66.4805C197.172 66.0696 196.315 66.1369 195.967 66.802C195.741 65.8751 194.256 65.5316 193.964 66.5954C193.425 65.7405 192.397 65.0906 192.102 66.4926C190.99 64.8339 189.707 66.1347 189.963 67.6251C190.379 69.7984 190.185 72.0589 190.006 74.2488C190.398 74.1758 190.801 74.1797 191.199 74.1956C191.68 71.7008 191.266 69.1546 190.887 66.7285C190.881 66.7475 190.877 66.7666 190.872 66.7855C190.896 66.6672 190.94 66.5389 191.067 66.4875C191.761 66.8413 191.881 67.6148 191.973 68.2808C192.994 69.5659 192.569 66.8191 192.893 66.4148C193.444 66.895 193.842 67.5841 193.672 68.3026C193.528 68.719 194.023 69.3029 194.412 68.8671C194.754 68.2644 194.269 67.1481 194.91 66.7446C194.904 66.7439 194.896 66.7431 194.888 66.7431C194.889 66.7424 194.891 66.7424 194.892 66.7424C194.88 66.7428 194.867 66.741 194.855 66.7403C195.984 66.8496 194.862 70.5732 196.345 69.5224C196.595 69.013 196.206 67.0536 197.175 67.3711C197.857 69.8089 196.544 72.389 196.471 74.8764C196.818 74.9062 197.18 74.8952 197.517 74.9796C197.746 74.0508 197.91 73.1098 198.072 72.1691Z" fill="white" fill-opacity="0.9"/>
<path d="M236.719 80.6526C236.723 80.654 236.727 80.6554 236.73 80.6566C236.727 80.6554 236.723 80.654 236.719 80.6526Z" fill="white" fill-opacity="0.5"/>
<path d="M237.577 151.812C245.199 151.443 243.252 151.725 244.644 145.013C246.112 146.782 247.639 148.499 249.236 150.165C250.659 150.736 252.524 150.63 254.076 150.497C260.288 150.166 266.862 149.827 272.599 147.455C273.401 147.268 273.189 146.444 272.657 146.083C271.947 145.204 271.426 144.242 271.056 143.193C269.2 139.013 269.166 135.222 269.601 130.806C270.088 125.444 271.47 120.138 272.702 114.885C282.984 114.533 298.831 115.79 307.08 109.221C313.838 102.497 311.068 93.9953 305.016 87.8257C300.982 83.5083 296.43 79.3808 290.818 76.9754C290.818 76.9754 290.818 76.9754 290.819 76.9754C289.583 76.9585 288.841 78.955 287.867 79.6169C287.185 80.5966 284.422 81.9791 286.164 83.1051C288.144 85.1523 290.773 86.7021 292.885 88.671L292.86 88.6449C313.21 104.995 281.175 99.3047 271.499 98.4973C265.842 98.0097 260.289 97.2834 254.619 96.6271C251.218 96.6519 248.012 96.2546 244.656 96.215L244.678 96.2213C242.912 96.0356 241.046 96.2117 239.34 95.74C233.184 94.6181 226.749 94.5328 220.549 95.2221L220.625 95.2199C214.856 95.6287 209.099 96.1812 203.313 96.3113C200.629 96.1942 197.799 96.996 195.191 96.3079L195.181 96.2831L195.183 96.2824C194.918 93.4808 195.37 91.1862 195.735 88.5375C196.29 84.6454 196.988 80.7948 198.614 77.1477C199.467 75.2615 197.114 74.7593 195.593 74.8106C193.766 74.7133 190.265 73.4086 188.907 74.7413C188.273 74.7061 188.188 76.8028 187.746 77.3611C185.22 83.2388 184.396 89.3367 183.26 95.5672L183.266 95.5361C182.562 100.25 182.632 106.894 188.378 108.705C193.183 110.462 198.425 110.987 203.526 111.382L203.521 111.382C203.538 111.383 203.84 111.404 203.866 111.406L203.831 111.403C208.147 111.999 212.399 111.881 216.75 111.821C219.979 111.77 223.283 111.988 226.556 111.788C226.766 117.909 229.608 123.913 228.206 130.013C227.259 134.205 225.938 138.164 224.422 142.196C223.559 144.079 223.462 146.328 222.715 148.21C220.979 150.654 229.789 151.376 231.301 151.507C231.558 151.671 231.906 151.72 232.193 151.599C233.964 151.884 235.784 151.814 237.577 151.812ZM242.314 149.881C242.309 149.881 242.304 149.881 242.3 149.881C242.318 149.846 242.332 149.813 242.344 149.779C242.334 149.813 242.324 149.847 242.314 149.881ZM287.438 112.956L287.428 112.954C287.649 112.953 287.865 112.95 288.076 112.946C287.868 112.95 287.655 112.954 287.438 112.956ZM234.493 96.2067C234.361 96.1969 234.229 96.1872 234.097 96.1773C234.229 96.1886 234.362 96.192 234.493 96.2067Z" fill="#FA7F08"/>
<path d="M264.947 98.5568C265.906 97.1347 261.14 97.0864 260.263 96.7395C260.022 96.7045 259.782 96.6603 259.541 96.6275L259.541 96.6271C259.064 96.564 258.583 96.5465 258.106 96.49C258.109 96.4908 258.112 96.4908 258.115 96.4915C252.637 95.9207 247.139 96.0575 241.704 95.2118C238.74 94.8801 235.755 95.0184 232.781 95.1048C232.15 95.1824 231.257 94.864 230.813 95.4007C230.597 95.7798 230.815 96.223 231.227 96.3767C235.414 96.5779 239.647 96.3345 243.828 96.8171C243.802 96.8142 243.775 96.8108 243.748 96.8072C249.905 97.5137 256.162 97.2065 262.306 98.1622C262.306 98.1622 262.305 98.1621 262.305 98.1621C262.575 98.1972 262.845 98.2312 263.115 98.2629C263.114 98.2629 263.113 98.2629 263.112 98.2629C263.728 98.2748 264.382 98.7321 264.947 98.5568Z" fill="#FA7F08"/>
<path d="M260.181 96.3463C260.092 95.2459 259.521 94.297 258.329 93.9738C258.427 93.0341 258.408 92.0891 258.414 91.1467C260.408 92.0315 261.915 90.147 260.314 88.6952C261.89 88.9647 262.26 87.1956 260.905 86.6052C262.147 86.3674 262.351 84.8054 261.143 84.3622C260.459 84.0334 259.669 84.0501 258.952 83.8169C259.843 78.8757 259.081 73.3994 255.963 69.23C255.965 69.2322 255.967 69.2342 255.968 69.237C253.601 66.084 249.435 64.7363 245.439 65.2643C245.441 65.2643 245.442 65.2643 245.443 65.2643C242.006 65.8385 241.324 63.8944 240.897 61.1877C240.408 59.2232 237.12 58.5956 237.063 61.0984C235.247 59.8443 233.33 61.1345 234.439 63.0841C233.447 62.7675 232.27 63.1204 232.247 64.2348C232.249 64.2159 232.251 64.1968 232.254 64.1784C232.248 64.2242 232.242 64.27 232.237 64.3165C232.24 64.2976 232.242 64.2785 232.244 64.2595C232.144 65.4355 232.956 66.4762 233.826 67.2452C233.82 67.2403 233.815 67.2345 233.809 67.2297C235.093 68.4334 236.703 69.3069 238.442 69.791C237.654 71.835 237.869 74.0906 237.187 76.1534C236.763 77.5525 235.195 77.8891 234.033 78.5724C233.494 79.3212 234.656 79.9403 235.307 80.1375C235.306 80.1375 235.306 80.1375 235.305 80.1375C235.775 80.3368 236.262 80.4988 236.746 80.6617C236.747 80.6617 236.748 80.6617 236.749 80.6617C236.748 80.6617 236.748 80.6617 236.747 80.6617C236.835 80.6949 236.924 80.7279 237.011 80.7618C236.865 87.4799 233.927 87.7539 242.145 89.4113C242.119 89.4058 242.093 89.4 242.067 89.3944C242.249 89.4346 242.428 89.4761 242.606 89.529C242.545 90.6954 242.553 91.8647 242.424 93.0276C241.404 93.4764 240.484 94.2198 239.841 95.0837C240.465 95.0877 241.086 95.1292 241.704 95.212C244.165 93.3752 247.71 94.6154 250.596 94.6035C253.099 95.2019 258.352 94.2638 259.541 96.6275C259.782 96.6603 260.022 96.7045 260.263 96.7395C260.266 96.6069 260.219 96.4668 260.181 96.3463ZM252.781 79.1796C254.685 79.474 254.871 82.2917 253.663 83.3991C252.788 83.752 253.475 85.0656 253.523 85.7469C254.026 87.7628 255.313 89.6192 257.274 90.6302C257.398 91.6374 257.437 92.6668 257.394 93.6821C252.805 93.1613 248.117 92.7015 243.487 92.7893C243.457 91.4943 243.786 90.0869 243.512 88.844C241.737 87.6653 239.244 87.8789 237.29 87.0042C237.161 85.9383 238.629 80.0684 237.235 80.1388C236.352 79.8384 235.171 79.7884 234.535 79.1044C237.179 78.3722 238.92 76.6127 238.964 73.947C238.964 73.947 238.964 73.947 238.964 73.947C238.97 73.8897 238.978 73.8314 238.984 73.7737C238.981 73.7955 238.979 73.8181 238.976 73.8399C238.99 73.7165 239.003 73.5926 239.016 73.4685C239.907 73.8873 240.839 74.2649 241.81 74.4909C241.786 74.486 241.761 74.4803 241.737 74.4754C242.642 74.742 245.516 74.9027 244.419 73.3929C242.8 72.641 240.967 71.9653 239.127 72.2239C239.205 71.506 239.206 70.7781 239.378 70.0712C242.382 71.1571 245.331 72.4565 248.378 73.4753C248.368 75.8186 247.842 78.1299 247.552 80.4506C247.552 80.4499 247.552 80.4499 247.552 80.4499C247.01 83.1615 247.45 82.9101 250.149 83.4976C251.6 82.7784 250.701 79.0993 252.781 79.1796Z" fill="white" fill-opacity="0.9"/>
<path d="M272.947 112.014C273.72 110.783 272.666 110.242 272.56 111.009C272.477 111.209 272.355 111.391 272.221 111.565C271.932 111.969 272.681 112.494 272.947 112.014Z" fill="white" fill-opacity="0.9"/>
<path d="M226.211 108.868C226.575 108.26 225.986 107.105 225.697 106.507C224.747 106.014 225.164 107.522 225.09 107.977C225.091 107.95 225.093 107.924 225.094 107.898C224.878 108.529 225.536 109.414 226.211 108.868Z" fill="white" fill-opacity="0.9"/>
<path d="M244.676 142.946C245.285 141.317 244.54 139.308 244.761 137.556C244.725 136.924 245.329 135.251 244.12 135.482C243.266 136.977 243.659 138.957 243.555 140.629C243.571 141.416 243.205 143.507 244.676 142.946Z" fill="white" fill-opacity="0.9"/>
<path d="M237.391 95.8408C237.987 95.8782 239.333 95.4106 238.266 94.9234C238.266 94.9227 238.266 94.9219 238.267 94.9214C237.554 94.9914 236.836 95.004 236.122 94.9023C235.856 94.8748 235.641 95.0671 235.646 95.3166C235.728 96.0937 236.813 95.8246 237.391 95.8408Z" fill="white" fill-opacity="0.9"/>
<path d="M186.454 69.8711C186.891 69.4688 186.567 68.7249 186.647 68.1978C186.714 68.1073 186.683 67.9873 186.627 67.8946L186.627 67.8953C186.233 67.1665 185.901 68.1641 185.908 68.5443C185.814 69.029 185.547 70.1076 186.454 69.8711Z" fill="white" fill-opacity="0.9"/>
<path d="M157.557 71.3214C157.777 69.7592 157.565 68.2075 157.614 66.6453C157.454 65.9465 158.277 63.3877 157.031 63.6063L157.031 63.6047C156.123 65.5329 156.666 67.9088 156.451 69.9896C156.451 69.982 156.451 69.9744 156.451 69.9668C156.45 69.9932 156.449 70.0195 156.448 70.0459C156.448 70.0424 156.448 70.039 156.448 70.0356C156.482 70.5861 156.272 71.5519 157.044 71.6997C157.29 71.7276 157.539 71.5637 157.557 71.3214Z" fill="white" fill-opacity="0.9"/>
<path d="M252.252 69.1833C253.004 68.7345 251.432 67.973 251.038 67.7528C250.505 67.5473 250.3 68.2934 250.76 68.4983C251.259 68.6969 251.701 69.1611 252.252 69.1833Z" fill="#FA7F08"/>
<path d="M250.966 70.5725C251.054 70.5077 251.089 70.4105 251.085 70.312C251.085 70.3133 251.086 70.3145 251.086 70.316C251.082 70.2656 251.072 70.2153 251.051 70.1686C251.051 70.1693 251.051 70.17 251.051 70.1707C250.673 69.6292 250.07 69.1799 249.528 68.779C249.027 68.5247 248.769 69.2172 249.219 69.4385C249.216 69.4364 249.213 69.4344 249.209 69.4322C249.501 69.624 249.76 69.8536 250.035 70.0652C250.031 70.0616 250.026 70.058 250.022 70.0544C250.037 70.0663 250.051 70.078 250.066 70.0896C250.062 70.0869 250.059 70.0842 250.055 70.0813C250.355 70.2512 250.543 70.8284 250.966 70.5725Z" fill="#FA7F08"/>
<path d="M249.309 71.1759C250.11 70.5911 248.573 69.9157 248.135 69.5721C247.973 69.479 247.746 69.5073 247.641 69.6615C247.384 70.2318 248.306 70.4814 248.622 70.8386C248.621 70.8379 248.62 70.837 248.619 70.8363C248.683 70.8915 248.752 70.9436 248.808 71.0074C248.805 71.0035 248.802 70.9995 248.799 70.9955C248.807 71.0028 248.814 71.01 248.821 71.0174C248.801 70.9981 248.785 70.9775 248.77 70.9553C248.772 70.9582 248.774 70.9609 248.776 70.9638C248.766 70.9467 248.757 70.9288 248.747 70.9111C248.849 71.1032 249.081 71.2535 249.309 71.1759Z" fill="#FA7F08"/>
<path d="M293.861 167.691C294.789 167.336 296.018 167.033 296.483 166.125C296.676 165.586 295.66 165.17 295.554 165.829C295.071 166.546 293.014 166.449 293.232 167.394C293.332 167.611 293.611 167.777 293.861 167.691Z" fill="white" fill-opacity="0.5"/>
<path d="M292.003 165.729C292.426 165.222 294.11 163.973 293.718 163.366C293.168 163.19 292.829 164.381 292.343 164.638C292.131 164.975 291.264 165.279 291.618 165.715C291.725 165.813 291.893 165.832 292.003 165.729Z" fill="white" fill-opacity="0.5"/>
<path d="M247.748 156.4C248.206 156.368 248.043 155.715 247.639 155.745C247.092 155.899 245.999 155.189 245.781 155.846C246.006 156.474 247.154 156.302 247.748 156.4Z" fill="white" fill-opacity="0.5"/>
<path d="M245.657 159.363C246.157 159.214 247.424 159.521 247.346 158.786C247.034 158.142 246.066 158.709 245.487 158.649C245.03 158.732 245.245 159.399 245.657 159.363Z" fill="white" fill-opacity="0.5"/>
</svg>
