<svg width="74" height="40" viewBox="0 0 74 40" fill="none" xmlns="http://www.w3.org/2000/svg">
<path d="M50.0346 0.0772552C50.3766 0.132431 50.3104 0.165531 49.4277 0.331051C47.1877 0.77243 45.7752 1.97519 44.9918 4.13794C44.7821 4.72277 44.738 5.05381 44.738 6.14622C44.738 8.08829 45.1242 9.13656 46.2939 10.4055C47.1766 11.3655 48.3794 11.9062 51.7449 12.8331C52.5283 13.0538 53.389 13.3517 53.6428 13.5062C54.4704 13.9917 54.3932 14.6869 53.4552 15.1945C53.047 15.4262 52.7821 15.4704 51.8111 15.5145C50.5863 15.5586 48.9532 15.3379 48.3794 15.04C48.2139 14.9517 47.7504 14.4331 47.3421 13.8924C45.9628 12.0386 44.4732 11.1338 42.2332 10.8028C40.0042 10.4717 37.1573 10.9352 35.138 11.9504C34.3546 12.3476 32.6884 13.4179 32.0042 13.9807C31.7725 14.1683 31.5408 14.3228 31.4856 14.3228C31.4415 14.3228 31.2208 14.0469 31.0001 13.7159C30.1394 12.4248 28.6166 11.3655 27.0277 10.9573C26.0677 10.7145 24.2249 10.6262 23.0553 10.7807C21.0139 11.0455 19.7228 11.5421 17.8249 12.7779C17.1739 13.2083 16.6001 13.5504 16.567 13.5504C16.5228 13.5504 16.4897 13.2193 16.4897 12.811C16.4897 12.3476 16.4125 11.8731 16.2911 11.5862L16.1035 11.1117L12.7159 11.1448C10.1228 11.1669 9.29526 11.211 9.18491 11.3214C9.07457 11.4317 9.03043 14.1352 9.00836 25.3131C8.98629 38.4552 8.99733 39.1614 9.17388 39.2386C9.44974 39.349 16.5559 39.3379 16.6773 39.2276C16.7215 39.1724 16.7766 34.9462 16.7987 29.8152L16.8208 20.5021L17.6263 19.9724C19.6346 18.6152 21.047 18.0745 22.5918 18.0745C23.9711 18.0745 24.5559 18.4828 24.9201 19.7186C25.0746 20.2483 25.0966 21.3959 25.0966 29.6607V38.9959L25.5159 39.1834C25.8801 39.349 26.3766 39.371 29.1021 39.371C30.8346 39.371 32.3794 39.3269 32.5228 39.2717C32.7104 39.1945 32.8318 39.04 32.887 38.7972C32.9421 38.5986 32.9642 34.4276 32.9421 29.5393L32.909 20.6345L33.8911 19.9393C35.6787 18.6704 37.2456 18.0745 38.8125 18.0745C39.7946 18.0745 40.1256 18.2069 40.6332 18.7807C41.3173 19.5531 41.2621 18.3062 41.3063 36.3476C41.3173 38.7421 41.3284 38.8966 41.538 39.1283C41.7587 39.371 41.8139 39.371 45.058 39.371C47.7504 39.371 48.4235 39.3379 48.7546 39.2055L49.1518 39.04V29.7048V20.3807L50.9394 20.4138L52.738 20.4469L52.8152 21.109C53.047 22.9628 54.1173 24.8497 55.7173 26.229C56.887 27.2331 59.0166 28.1048 62.338 28.9324C64.9201 29.5835 65.8911 30.0248 66.2221 30.709C66.3766 31.029 66.3766 31.1614 66.2773 31.5255C65.9904 32.4635 65.0525 32.8607 62.9339 32.9379C60.8483 33.0262 58.5973 32.5959 55.8056 31.5807C54.6359 31.1614 54.2277 31.1172 53.9739 31.4041C53.7863 31.6028 52.1311 36.5241 52.0539 37.131C51.9987 37.44 52.0428 37.4952 52.4842 37.749C53.5104 38.3448 56.6442 39.2607 59.0387 39.6579C60.0539 39.8345 60.1752 39.8786 59.8552 39.9338C59.6456 39.9669 60.9146 40 62.669 40C64.4346 40 65.6483 39.9669 65.3725 39.9338L64.8759 39.8566L65.538 39.7793C68.8483 39.3379 71.1435 38.0138 72.589 35.6966C73.6594 33.9862 74.0676 32.1876 73.8801 30.091C73.6814 27.7959 72.9532 26.1738 71.4525 24.6952C70.5145 23.7683 69.5325 23.1504 68.0759 22.5655C67.1821 22.2124 66.4539 21.9917 62.7242 20.9766C60.9477 20.491 60.407 20.0938 60.407 19.2662C60.407 18.3062 60.9366 17.8979 62.4373 17.7214C64.0594 17.5228 66.0345 17.8648 68.3077 18.7366C70.8677 19.7186 70.9559 19.7186 71.309 18.8248C72.1366 16.7062 73.1408 13.4179 73.0414 13.12C72.9201 12.7448 69.9408 11.6193 67.7339 11.1338C65.549 10.6483 62.7242 10.56 60.407 10.9021L58.9173 11.1228L58.7077 10.8138C58.5863 10.6483 58.1559 10.1738 57.7366 9.76553C56.7987 8.8276 55.607 8.24277 53.4552 7.64691C50.167 6.75312 50.0346 6.68691 50.0346 6.00277C50.0346 5.23036 50.7187 4.83312 52.0318 4.83312C52.9697 4.83312 53.9077 5.04277 55.7283 5.64967C56.5559 5.93657 57.2952 6.15725 57.3615 6.15725C57.5711 6.15725 58.9725 1.93105 58.8401 1.71036C58.6194 1.31312 56.9863 0.728291 55.0552 0.353119C54.2828 0.198635 54.1283 0.143463 54.338 0.0772552C54.4925 0.0331192 53.4994 1.52588e-05 52.1311 1.52588e-05C50.7628 1.52588e-05 49.8249 0.0331192 50.0346 0.0772552Z" fill="#FEFEFE"/>
<path d="M3.31034 19.9697C1.64414 20.3448 0.728276 21.2828 0.430345 22.8828C0.176552 24.2069 0.573793 25.6193 1.41241 26.3476C1.94207 26.8221 2.86896 27.2193 4.41379 27.6607C5.81517 28.0469 6.09103 28.2234 6.04689 28.6428C5.94758 29.5034 3.78483 29.5365 1.44552 28.709C1.11448 28.5986 0.915862 28.5765 0.827586 28.6538C0.750344 28.72 0.606896 29.1614 0.496551 29.6579C0.353103 30.32 0.275862 30.5296 0.154483 30.4855C0.0331034 30.4414 0 30.5296 0 30.8717C0 31.1917 0.0551724 31.3241 0.198621 31.3683C0.297931 31.4014 0.662069 31.5448 0.993103 31.6883C1.85379 32.0524 3.26621 32.2952 4.56827 32.2952C6.99586 32.2952 8.26482 31.6331 9.03724 29.9779C9.28 29.4703 9.32413 29.2165 9.3131 28.3779C9.3131 27.1421 9.07034 26.5793 8.18758 25.7738C7.45931 25.1117 7.0731 24.9241 5.40689 24.4607C4.00552 24.0745 3.58621 23.8979 3.48689 23.611C3.37655 23.3241 3.85103 22.96 4.44689 22.8717C5.03172 22.7834 6.38896 23.0372 7.32689 23.4234C7.69103 23.5669 8.02207 23.6552 8.0662 23.611C8.19862 23.4676 8.93793 21.3379 8.93793 21.0841C8.93793 20.7531 8.54069 20.5324 7.37103 20.2014C6.13517 19.8593 4.24827 19.76 3.31034 19.9697Z" fill="#FEFEFE"/>
</svg>
