<svg width="306" height="72" viewBox="0 0 306 72" fill="none" xmlns="http://www.w3.org/2000/svg">
<path d="M65.5359 12.7471C65.9239 12.8099 65.8488 12.8475 64.8475 13.0356C62.3064 13.5374 60.7042 14.9047 59.8155 17.3632C59.5776 18.0281 59.5276 18.4044 59.5276 19.6462C59.5276 21.8539 59.9657 23.0456 61.2925 24.4881C62.2939 25.5794 63.6583 26.194 67.4761 27.2477C68.3648 27.4986 69.3412 27.8373 69.6291 28.0129C70.5679 28.5648 70.4803 29.3551 69.4163 29.9321C68.9532 30.1955 68.6527 30.2457 67.5512 30.2959C66.1618 30.346 64.3092 30.0952 63.6583 29.7565C63.4705 29.6561 62.9448 29.0666 62.4817 28.4519C60.917 26.3446 59.2271 25.316 56.6861 24.9397C54.1576 24.5634 50.9281 25.0902 48.6374 26.2442C47.7487 26.6958 45.8586 27.9125 45.0825 28.5523C44.8196 28.7655 44.5568 28.9411 44.4942 28.9411C44.4441 28.9411 44.1938 28.6275 43.9434 28.2512C42.9671 26.7836 41.2396 25.5794 39.4371 25.1153C38.3481 24.8393 36.2577 24.739 34.9309 24.9146C32.6152 25.2156 31.1506 25.7801 28.9976 27.185C28.2591 27.6742 27.6082 28.0631 27.5707 28.0631C27.5206 28.0631 27.483 27.6868 27.483 27.2226C27.483 26.6958 27.3954 26.1564 27.2577 25.8303L27.0449 25.2909L23.2021 25.3285C20.2605 25.3536 19.3217 25.4038 19.1965 25.5292C19.0713 25.6547 19.0213 28.7279 18.9962 41.4347C18.9712 56.3743 18.9837 57.1771 19.184 57.2649C19.4969 57.3904 27.5581 57.3778 27.6958 57.2524C27.7459 57.1897 27.8085 52.3854 27.8335 46.5526L27.8586 35.9656L28.7723 35.3635C31.0505 33.8207 32.6527 33.206 34.4052 33.206C35.9698 33.206 36.6332 33.6701 37.0463 35.075C37.2216 35.6771 37.2466 36.9817 37.2466 46.377V56.989L37.7223 57.2022C38.1353 57.3904 38.6986 57.4155 41.7904 57.4155C43.7556 57.4155 45.5081 57.3653 45.6708 57.3026C45.8836 57.2148 46.0213 57.0392 46.0839 56.7632C46.1465 56.5374 46.1715 51.7959 46.1465 46.239L46.1089 36.1162L47.223 35.3259C49.2508 33.8834 51.0282 33.206 52.8057 33.206C53.9198 33.206 54.2953 33.3565 54.8711 34.0088C55.6472 34.8869 55.5846 33.4694 55.6347 53.9785C55.6472 56.7005 55.6597 56.8761 55.8975 57.1395C56.1479 57.4155 56.2104 57.4155 59.8906 57.4155C62.9448 57.4155 63.7084 57.3778 64.0839 57.2273L64.5345 57.0392V46.4271V35.8277L66.5623 35.8653L68.6027 35.9029L68.6903 36.6555C68.9532 38.7629 70.1673 40.9079 71.9824 42.4759C73.3092 43.6173 75.7251 44.6083 79.4928 45.5491C82.4219 46.2892 83.5234 46.7909 83.8989 47.5686C84.0742 47.9324 84.0742 48.0829 83.9615 48.4969C83.6361 49.5631 82.5721 50.0146 80.1687 50.1025C77.803 50.2028 75.2494 49.7136 72.0825 48.5596C70.7557 48.0829 70.2925 48.0327 70.0046 48.3589C69.7918 48.5847 67.9142 54.1792 67.8266 54.8691C67.764 55.2203 67.8141 55.283 68.3148 55.5715C69.4789 56.2489 73.0338 57.29 75.7501 57.7416C76.9017 57.9423 77.0394 57.9925 76.6764 58.0552C76.4386 58.0928 77.8781 58.1305 79.8683 58.1305C81.8711 58.1305 83.248 58.0928 82.9351 58.0552L82.3718 57.9674L83.1228 57.8796C86.8781 57.3778 89.4817 55.8726 91.1215 53.2384C92.3356 51.2941 92.7988 49.2495 92.586 46.8662C92.3607 44.2571 91.5345 42.4131 89.8322 40.7323C88.7682 39.6786 87.6541 38.9761 86.0018 38.3113C84.9879 37.9099 84.1618 37.659 79.9309 36.505C77.9156 35.9531 77.3023 35.5015 77.3023 34.5607C77.3023 33.4694 77.9031 33.0053 79.6055 32.8046C81.4455 32.5788 83.6861 32.9677 86.2647 33.9586C89.1687 35.075 89.2689 35.075 89.6694 34.059C90.6082 31.6506 91.7473 27.9125 91.6347 27.5739C91.497 27.1474 88.1173 25.8679 85.6138 25.316C83.1354 24.7641 79.9309 24.6637 77.3023 25.0526L75.6124 25.3034L75.3746 24.9522C75.2369 24.7641 74.7487 24.2247 74.273 23.7606C73.2091 22.6943 71.8572 22.0295 69.4163 21.3522C65.6861 20.3361 65.5359 20.2608 65.5359 19.4831C65.5359 18.6051 66.312 18.1535 67.8016 18.1535C68.8655 18.1535 69.9295 18.3918 71.9949 19.0817C72.9337 19.4079 73.7724 19.6587 73.8475 19.6587C74.0853 19.6587 75.675 14.8545 75.5248 14.6036C75.2744 14.152 73.4219 13.4872 71.2313 13.0607C70.3551 12.8851 70.1799 12.8224 70.4177 12.7471C70.5929 12.697 69.4664 12.6593 67.9142 12.6593C66.3621 12.6593 65.2981 12.697 65.5359 12.7471Z" fill="#FEFEFE"/>
<path d="M131.19 24.5257C131.102 24.5759 131.064 26.1564 131.064 28.9411C131.064 32.905 131.089 33.3064 131.29 33.62C131.565 34.0464 132.066 34.2471 132.592 34.1468C132.917 34.0841 133.005 34.0088 133.005 33.7705C133.005 33.4443 132.704 33.0806 132.441 33.0806C132.153 33.0806 132.103 32.1774 132.141 28.2638C132.179 25.2533 132.153 24.5383 132.028 24.4881C131.778 24.4003 131.34 24.4128 131.19 24.5257Z" fill="#FEFEFE"/>
<path d="M146.11 24.5006C146.06 24.5508 146.023 26.7334 146.023 29.3425C146.023 33.0304 146.06 34.1092 146.185 34.1468C146.261 34.1719 146.536 34.1593 146.774 34.1092L147.212 34.0088L147.249 31.7635C147.274 30.2206 147.325 29.468 147.437 29.3425C147.662 29.0666 148.789 28.5648 149.19 28.5648C150.141 28.5648 150.279 28.9788 150.279 31.8387C150.279 33.1684 150.329 34.0966 150.404 34.1468C150.466 34.1844 150.729 34.1844 150.98 34.1342L151.418 34.059L151.38 31.3746C151.343 28.4017 151.293 28.2512 150.391 27.7746C149.778 27.4484 148.564 27.5488 147.9 27.9878C147.625 28.1634 147.375 28.3139 147.337 28.3139C147.312 28.3139 147.262 27.4484 147.249 26.3947L147.212 24.4881L146.711 24.4505C146.423 24.4254 146.16 24.4505 146.11 24.5006Z" fill="#FEFEFE"/>
<path d="M161.006 24.5132C160.956 24.5508 160.918 26.5327 160.918 28.9035C160.918 33.7579 160.931 33.8457 161.745 34.0715C161.995 34.1468 162.37 34.1593 162.571 34.1217C162.884 34.059 162.934 34.0088 162.896 33.6576C162.871 33.344 162.784 33.2562 162.458 33.1558L162.045 33.0429V28.7404V24.4254H161.569C161.306 24.4254 161.044 24.463 161.006 24.5132Z" fill="#FEFEFE"/>
<path d="M110.999 25.454L111.037 25.9933L111.637 26.031L112.226 26.0686V25.5041V24.9271H111.587H110.962L110.999 25.454Z" fill="#FEFEFE"/>
<path d="M100.622 25.2658L100.359 25.316L100.422 29.7314C100.472 33.4067 100.51 34.1468 100.66 34.1342C100.76 34.1342 101.01 34.1217 101.236 34.1092L101.624 34.0841L101.549 30.6722C101.498 28.7906 101.511 27.3104 101.561 27.3732C101.624 27.4484 101.799 27.8373 101.949 28.2512C102.112 28.6652 102.337 29.2547 102.462 29.5683C102.6 29.8819 102.938 30.7223 103.213 31.4499C103.501 32.1774 103.789 32.8422 103.864 32.9175C103.939 33.0053 104.202 33.0806 104.465 33.0806C104.841 33.0806 104.953 33.0178 105.091 32.7293C105.441 31.9767 106.693 28.9788 106.831 28.5648C106.918 28.3265 107.094 27.9251 107.219 27.6868L107.469 27.2477L107.432 30.6722L107.407 34.0841H108.008H108.596V29.7063V25.3285L108.22 25.2407C107.657 25.1153 107.119 25.2783 107.031 25.5919C106.956 25.8428 105.241 29.9948 104.778 31.0359C104.678 31.2617 104.54 31.4499 104.478 31.4499C104.415 31.4499 104.215 31.0736 104.014 30.5969C103.126 28.4394 102.663 27.3355 102.462 26.8714C102.337 26.5954 102.149 26.1439 102.037 25.8679C101.749 25.178 101.536 25.0902 100.622 25.2658Z" fill="#FEFEFE"/>
<path d="M114.829 25.893C114.642 25.9432 114.604 26.0937 114.604 26.8212V27.6867H113.966C113.427 27.6867 113.34 27.7244 113.402 27.8874C113.44 28.0003 113.478 28.2261 113.478 28.3892C113.478 28.6652 113.528 28.6902 114.028 28.6902H114.579L114.629 30.9732C114.667 33.4945 114.717 33.6827 115.43 34.0213C115.931 34.2597 117.471 34.2722 117.784 34.0464C117.934 33.9335 117.996 33.7579 117.959 33.5196L117.921 33.1433L116.932 33.1182C116.394 33.1057 115.918 33.0555 115.881 33.0304C115.843 32.9928 115.793 32.0018 115.756 30.8227L115.693 28.6902H116.382C116.77 28.6902 117.258 28.6526 117.471 28.615C117.809 28.5397 117.859 28.4895 117.859 28.1132V27.6867H116.795H115.731V26.8212C115.731 26.031 115.706 25.9557 115.455 25.8804C115.293 25.8428 115.142 25.8177 115.105 25.8177C115.067 25.8303 114.942 25.8554 114.829 25.893Z" fill="#FEFEFE"/>
<path d="M119.699 25.8804C119.649 25.9306 119.611 26.3571 119.611 26.8338V27.6867H119.048C118.497 27.6867 118.484 27.6867 118.484 28.1132C118.484 28.5523 118.672 28.6902 119.323 28.6902C119.586 28.6902 119.586 28.7279 119.636 30.9732C119.686 33.4945 119.736 33.6827 120.437 34.0213C120.675 34.1342 121.201 34.2095 121.714 34.2095C122.715 34.2095 123.028 34.0213 122.966 33.4694C122.928 33.1558 122.903 33.1433 122.027 33.1433C121.464 33.1433 121.063 33.0806 120.963 32.9802C120.838 32.8548 120.8 32.2652 120.8 30.7223V28.6275L121.827 28.5899C122.79 28.5523 122.841 28.5397 122.916 28.2387C122.966 28.0631 122.966 27.8749 122.928 27.8122C122.878 27.7369 122.377 27.6867 121.802 27.6867H120.75L120.713 26.7711L120.675 25.8679L120.237 25.8303C119.987 25.8052 119.749 25.8303 119.699 25.8804Z" fill="#FEFEFE"/>
<path d="M125.357 27.8498C124.918 28.0756 124.731 28.2889 124.443 28.8533C124.117 29.4931 124.08 29.7063 124.08 30.7474C124.08 32.5788 124.606 33.6827 125.657 34.0715C126.12 34.2471 127.785 34.2346 128.498 34.0464C129.087 33.8834 129.212 33.6952 129.074 33.1433C128.999 32.8548 128.987 32.8548 128.411 33.0304C127.597 33.2813 126.32 33.2562 125.92 32.9928C125.569 32.767 125.119 31.9767 125.119 31.5753C125.119 31.337 125.194 31.3245 126.796 31.3245C127.71 31.3245 128.636 31.2617 128.861 31.1865C129.237 31.0485 129.25 31.0359 129.25 30.2708C129.25 29.3676 129.074 28.753 128.699 28.3265C128.01 27.5488 126.383 27.3104 125.357 27.8498ZM127.497 28.753C127.923 28.9788 128.286 29.5809 128.223 29.9823C128.186 30.2457 128.123 30.2582 126.658 30.2959C125.169 30.3335 125.119 30.321 125.119 30.0701C125.119 29.6938 125.432 29.1293 125.82 28.8282C126.22 28.5146 126.971 28.477 127.497 28.753Z" fill="#FEFEFE"/>
<path d="M134.92 27.8122C134.407 28.1258 134.169 28.5021 134.056 29.1418C133.881 30.2833 134.519 31.0108 135.959 31.3244C136.722 31.4875 137.386 31.8764 137.398 32.1649C137.461 33.1057 137.236 33.2311 135.759 33.1558C135.108 33.1182 134.444 33.0555 134.294 33.0053C134.031 32.93 134.006 32.9677 134.006 33.3691C134.006 34.0339 134.294 34.1468 136.009 34.1468C137.198 34.1468 137.511 34.1092 137.786 33.921C138.45 33.4694 138.7 32.3907 138.337 31.5251C138.112 30.9732 137.761 30.7474 136.697 30.4213C135.421 30.045 135.133 29.8443 135.133 29.3676C135.133 28.8031 135.458 28.5648 136.272 28.5648C136.647 28.5648 137.16 28.6275 137.423 28.7028C137.987 28.8533 138.262 28.7028 138.262 28.2387C138.262 28.0003 138.149 27.9125 137.611 27.7495C136.685 27.4735 135.421 27.4986 134.92 27.8122Z" fill="#FEFEFE"/>
<path d="M141.078 27.8373C140.252 28.3265 139.977 28.9788 139.914 30.6471C139.852 32.1774 139.964 32.7544 140.49 33.4443C140.653 33.6701 140.991 33.9335 141.216 34.0339C141.992 34.36 144.17 34.1844 144.421 33.783C144.471 33.7078 144.521 33.482 144.521 33.2813C144.521 32.9426 144.496 32.93 144.12 33.0053C143.169 33.206 142.142 33.2311 141.779 33.0806C141.254 32.8673 140.991 32.1398 140.991 30.8854C140.991 28.9411 141.554 28.3516 143.119 28.6526C144.421 28.9035 144.333 28.9286 144.37 28.4268C144.408 28.0505 144.358 27.9627 144.058 27.8247C143.87 27.7244 143.231 27.6366 142.643 27.5989C141.692 27.5488 141.529 27.5864 141.078 27.8373Z" fill="#FEFEFE"/>
<path d="M165.274 27.9251C164.323 28.5397 164.11 29.0666 164.11 30.8854C164.11 32.5663 164.286 33.1057 165.049 33.7454C165.537 34.1593 166.063 34.2597 167.415 34.1844C168.792 34.0966 169.055 33.9712 169.055 33.3816C169.055 32.9426 169.042 32.93 168.654 33.0053C167.903 33.1558 166.451 33.2436 166.126 33.1558C165.713 33.0555 165.174 32.2527 165.174 31.7384V31.3244H167.027C168.304 31.3244 168.93 31.2743 169.03 31.1739C169.117 31.0861 169.18 30.6596 169.18 30.1328C169.18 29.0917 168.955 28.5648 168.266 28.0129C167.841 27.6742 167.678 27.624 166.827 27.5864C165.938 27.5488 165.825 27.5739 165.274 27.9251ZM167.665 28.8784C168.041 29.2045 168.379 29.9697 168.241 30.1955C168.128 30.3837 165.049 30.3586 165.049 30.1704C165.049 29.8443 165.562 28.9913 165.888 28.7906C166.426 28.4645 167.202 28.5021 167.665 28.8784Z" fill="#FEFEFE"/>
<path d="M111.099 30.4088C111.099 31.914 111.062 33.3565 111.024 33.6074L110.937 34.0841H111.587H112.226V30.8854V27.6868H111.663H111.099V30.4088Z" fill="#FEFEFE"/>
<path d="M153.533 30.1579C153.533 31.5251 153.596 32.8422 153.658 33.0931C153.859 33.8206 154.284 34.1217 155.223 34.1844C156.012 34.2346 156.087 34.2095 157.101 33.6576C157.464 33.4569 157.476 33.4569 157.601 33.7705C157.714 34.0966 158.152 34.2973 158.478 34.1593C158.64 34.0966 158.665 33.6199 158.665 30.8854V27.6867H158.102H157.539V29.9823C157.539 32.5161 157.564 32.4408 156.7 32.8799C156.237 33.1182 155.023 33.1433 154.81 32.93C154.697 32.8171 154.66 32.052 154.66 30.2331V27.6867H154.096H153.533V30.1579Z" fill="#FEFEFE"/>
<path d="M162.508 35.928C162.37 36.066 162.408 44.1316 162.546 44.6459C162.721 45.2606 163.084 45.4989 163.822 45.4989C164.411 45.4989 164.423 45.4864 164.423 45.11C164.423 44.7965 164.348 44.7086 163.985 44.5456L163.547 44.37V40.1051V35.8402H163.071C162.809 35.8402 162.546 35.8778 162.508 35.928Z" fill="#FEFEFE"/>
<path d="M177.529 35.928C177.479 35.9656 177.441 38.1483 177.441 40.7574V45.5114L178.042 45.4738L178.631 45.4362V43.2159C178.631 41.1838 178.656 40.9831 178.881 40.7197C179.407 40.1302 180.633 39.804 181.197 40.1051C181.597 40.3183 181.697 40.9455 181.697 43.2536V45.4989H182.261H182.824V43.103C182.824 40.4563 182.736 39.9295 182.173 39.3901C181.873 39.1016 181.685 39.0389 180.959 39.0012C180.22 38.9511 180.033 38.9887 179.432 39.3023C179.056 39.503 178.718 39.6786 178.668 39.7037C178.606 39.7288 178.568 38.8758 178.568 37.797V35.8402H178.092C177.829 35.8402 177.567 35.8778 177.529 35.928Z" fill="#FEFEFE"/>
<path d="M192.337 40.1051C192.337 45.0348 192.375 45.2606 193.226 45.524C193.814 45.6996 194.415 45.4989 194.29 45.1728C194.252 45.0599 194.215 44.8968 194.215 44.809C194.215 44.7212 194.052 44.5832 193.839 44.5079L193.464 44.3825V40.1176V35.8402H192.9H192.337V40.1051Z" fill="#FEFEFE"/>
<path d="M142.48 36.2918C142.43 36.3419 142.393 36.6305 142.393 36.9315V37.4834L142.994 37.4458L143.582 37.4082V36.8437V36.2792L143.081 36.2416C142.793 36.2165 142.53 36.2416 142.48 36.2918Z" fill="#FEFEFE"/>
<path d="M101.398 36.5803C100.184 36.8939 99.4581 38.0354 99.6333 39.3399C99.796 40.4939 100.347 40.9706 102.212 41.5351C103.489 41.9114 103.839 42.225 103.927 43.0403C104.014 43.7428 103.764 44.1818 103.151 44.4452C102.562 44.6835 101.999 44.671 100.822 44.37C100.272 44.2194 99.771 44.1442 99.7084 44.1818C99.6333 44.232 99.5833 44.4452 99.5833 44.6835C99.5833 45.0975 99.6083 45.1226 100.409 45.3735C101.536 45.7121 102.9 45.7121 103.714 45.3609C104.427 45.0599 105.078 44.2069 105.103 43.5671C105.166 41.7859 104.64 41.1086 102.75 40.4688C101.236 39.9671 100.835 39.6159 100.835 38.8256C100.835 38.3866 100.91 38.1984 101.16 37.9601C101.448 37.6967 101.599 37.659 102.437 37.659C102.975 37.659 103.576 37.7343 103.802 37.8347C104.165 37.9852 104.252 37.9726 104.54 37.797C105.066 37.4458 104.903 37.0695 104.09 36.8061C103.313 36.5426 101.962 36.4297 101.398 36.5803Z" fill="#FEFEFE"/>
<path d="M126.333 37.2953C126.283 37.3455 126.245 37.7343 126.245 38.1733C126.245 39.0263 126.183 39.1016 125.419 39.1016C125.056 39.1016 124.994 39.1518 124.994 39.3775C124.994 39.8291 125.144 39.9546 125.682 40.0047L126.183 40.0424L126.245 42.363C126.283 43.6424 126.358 44.7839 126.408 44.8968C126.596 45.2731 127.51 45.6243 128.261 45.6118C129.362 45.5867 129.562 45.4989 129.6 44.9595L129.637 44.4954L128.586 44.533C127.998 44.5456 127.497 44.533 127.459 44.4954C127.422 44.4578 127.384 43.4417 127.359 42.2375L127.309 40.0424L128.373 39.9796L129.437 39.9169L129.475 39.5281C129.512 39.1518 129.487 39.1392 128.924 39.0514C128.599 39.0138 128.123 38.9761 127.86 38.9761H127.384L127.347 38.1232L127.309 37.2827L126.871 37.2451C126.621 37.22 126.383 37.2451 126.333 37.2953Z" fill="#FEFEFE"/>
<path d="M146.023 38.0981V38.9761H145.66C145.046 38.9761 144.896 39.089 144.896 39.5531C144.896 39.9796 144.909 39.9796 145.46 39.9796H146.023L146.035 42.0744C146.035 43.3163 146.098 44.395 146.186 44.6835C146.386 45.3484 146.924 45.6243 148.026 45.6243C149.014 45.6243 149.44 45.3985 149.377 44.8968C149.34 44.5581 149.327 44.5581 148.364 44.5456C147.825 44.533 147.35 44.4828 147.3 44.4327C147.25 44.3825 147.199 43.3665 147.174 42.1623L147.124 39.9796H148.126C148.664 39.9796 149.14 39.9545 149.177 39.9169C149.215 39.8793 149.202 39.666 149.165 39.4403L149.077 39.0389L148.113 39.0012L147.149 38.9636V38.0981V37.22H146.586H146.023V38.0981Z" fill="#FEFEFE"/>
<path d="M151.117 37.2953C151.067 37.3454 151.03 37.7468 151.03 38.1859V38.9761H150.592C150.128 38.9761 150.053 39.0639 150.003 39.6033C149.966 39.8793 150.016 39.9295 150.466 39.9796L150.967 40.0423L151.03 42.3253C151.092 44.3825 151.117 44.6334 151.355 44.9595C151.493 45.1477 151.756 45.386 151.918 45.4613C152.281 45.6494 153.521 45.6745 153.971 45.4989C154.259 45.386 154.297 45.3107 154.259 44.9093L154.222 44.4327L153.295 44.4703C152.619 44.5079 152.344 44.4703 152.269 44.3449C152.206 44.2571 152.156 43.241 152.156 42.0744V39.9796H153.22H154.284V39.5531C154.284 39.0514 154.122 38.9761 152.945 38.9761H152.169L152.131 38.1232L152.094 37.2827L151.656 37.2451C151.405 37.22 151.167 37.2451 151.117 37.2953Z" fill="#FEFEFE"/>
<path d="M10.8349 37.6339C8.9448 38.0604 7.90586 39.1267 7.56789 40.9455C7.27999 42.4507 7.73062 44.0563 8.68194 44.8842C9.28277 45.4236 10.3342 45.8752 12.0867 46.3769C13.6764 46.816 13.9893 47.0167 13.9392 47.4933C13.8266 48.4718 11.3732 48.5094 8.71949 47.5686C8.34397 47.4432 8.11866 47.4181 8.01852 47.5059C7.93089 47.5811 7.76817 48.0829 7.64299 48.6474C7.48027 49.4 7.39265 49.6383 7.25496 49.5881C7.11726 49.538 7.07971 49.6383 7.07971 50.0272C7.07971 50.3909 7.1423 50.5415 7.30502 50.5916C7.41768 50.6293 7.83076 50.7923 8.20628 50.9554C9.18263 51.3694 10.7849 51.6453 12.2619 51.6453C15.0157 51.6453 16.4552 50.8927 17.3315 49.0111C17.6068 48.4341 17.6569 48.1456 17.6444 47.1923C17.6444 45.7874 17.369 45.1477 16.3676 44.232C15.5415 43.4793 15.1034 43.2661 13.2132 42.7393C11.6235 42.3002 11.1479 42.0995 11.0352 41.7734C10.91 41.4472 11.4483 41.0333 12.1242 40.933C12.7876 40.8326 14.3273 41.1211 15.3913 41.5601C15.8043 41.7232 16.1799 41.8236 16.2299 41.7734C16.3801 41.6103 17.2188 39.1894 17.2188 38.9009C17.2188 38.5246 16.7682 38.2737 15.4413 37.8974C14.0394 37.5085 11.8989 37.3956 10.8349 37.6339Z" fill="#FEFEFE"/>
<path d="M166.964 38.9887C166.051 39.1768 165.425 39.9295 165.425 40.8326C165.425 41.8737 165.925 42.3253 167.59 42.8145C170.019 43.5295 168.829 45.0473 166.301 44.4578C165.863 44.3449 165.45 44.2947 165.4 44.3198C165.337 44.3574 165.3 44.5456 165.3 44.7337C165.3 45.2731 166.176 45.662 167.428 45.6745C169.005 45.6745 169.931 44.9595 169.931 43.7177C169.931 42.6765 169.268 42.0619 167.69 41.648C166.526 41.3344 166.213 40.9831 166.551 40.3559C166.789 39.9044 167.753 39.8291 169.067 40.1678C169.48 40.2681 169.718 39.9922 169.606 39.5531C169.555 39.3148 169.418 39.2019 169.067 39.1141C168.404 38.951 167.428 38.8883 166.964 38.9887Z" fill="#FEFEFE"/>
<path d="M197.444 38.9761C196.58 39.1392 195.867 39.8542 195.604 40.795C195.429 41.4473 195.429 43.2661 195.604 43.8807C195.804 44.5205 196.393 45.2104 196.931 45.4362C197.469 45.662 198.758 45.662 199.785 45.4487C200.536 45.2982 200.536 45.2856 200.573 44.8215L200.611 44.3449L199.948 44.4201C197.832 44.6585 197.732 44.6585 197.407 44.4452C196.981 44.1693 196.593 43.517 196.593 43.103V42.7769L198.596 42.6765L200.599 42.5887V41.4096C200.599 40.2305 200.599 40.218 200.198 39.8542C199.384 39.1016 198.421 38.788 197.444 38.9761ZM198.658 40.0298C199.059 40.2054 199.597 40.8577 199.597 41.1964C199.597 41.2716 199.51 41.4347 199.397 41.5476C199.234 41.7107 198.959 41.7358 197.92 41.7107L196.656 41.673L196.668 41.1964C196.681 40.6695 196.968 40.2807 197.532 40.0298C198.02 39.8166 198.133 39.8166 198.658 40.0298Z" fill="#FEFEFE"/>
<path d="M106.906 39.1267C106.868 39.2145 106.831 41.3093 106.818 43.7804L106.781 48.2711L107.344 48.2334L107.907 48.1958L107.945 46.7783C107.97 45.4863 107.995 45.3609 108.195 45.4487C108.308 45.4989 108.784 45.5616 109.234 45.5992C110.861 45.6996 111.825 44.9093 112.101 43.2159C112.389 41.51 112.013 39.9044 111.187 39.3023C110.912 39.089 110.636 39.0388 109.935 39.0388C109.159 39.0388 108.971 39.089 108.533 39.3775C107.945 39.7915 107.845 39.804 107.845 39.503C107.845 39.3775 107.782 39.2145 107.695 39.1267C107.494 38.926 106.981 38.9385 106.906 39.1267ZM110.548 40.3685C110.886 40.7197 110.912 40.8201 110.962 41.949C111.012 43.4543 110.849 44.0438 110.311 44.3699C109.635 44.7964 107.995 44.6208 107.957 44.1442C107.857 42.9274 107.907 41.234 108.045 40.8953C108.245 40.4061 108.971 39.9922 109.672 39.9796C110.073 39.9796 110.248 40.0549 110.548 40.3685Z" fill="#FEFEFE"/>
<path d="M115.08 39.227C114.116 39.7413 113.715 40.657 113.715 42.2751C113.728 44.6083 114.592 45.6243 116.569 45.6243C118.159 45.6243 119.023 44.7839 119.261 43.0529C119.511 41.1462 119.035 39.7664 117.959 39.2396C117.208 38.8883 115.743 38.8758 115.08 39.227ZM117.295 40.1302C117.871 40.3936 118.109 41.0709 118.109 42.388C118.109 44.1191 117.721 44.6208 116.394 44.6208C115.906 44.6208 115.768 44.5581 115.418 44.1943C114.967 43.7051 114.854 43.3163 114.854 42.1497C114.854 40.7448 115.405 39.9796 116.432 39.9796C116.732 39.9796 117.12 40.0424 117.295 40.1302Z" fill="#FEFEFE"/>
<path d="M121.326 39.0514C121.188 39.1894 121.213 45.4738 121.363 45.5616C121.426 45.5992 121.676 45.5992 121.927 45.5491L122.365 45.4738V43.1783C122.365 41.3218 122.402 40.8577 122.553 40.7323C122.653 40.657 123.141 40.4187 123.642 40.2305C124.518 39.8918 124.555 39.8542 124.593 39.4277C124.631 39.0138 124.605 38.9761 124.305 38.9761C124.13 38.9761 123.629 39.1643 123.204 39.3775C122.778 39.6033 122.39 39.804 122.34 39.8291C122.29 39.8542 122.24 39.6786 122.215 39.4528C122.177 39.089 122.127 39.0389 121.802 39.0012C121.589 38.9761 121.376 39.0012 121.326 39.0514Z" fill="#FEFEFE"/>
<path d="M133.105 39.227C132.854 39.365 132.604 39.5281 132.567 39.6033C132.429 39.8291 132.141 39.7413 132.103 39.4403C132.078 39.2145 131.978 39.1518 131.54 39.1267L131.002 39.089V42.2877V45.4989H131.565H132.128V43.3163C132.128 41.1337 132.128 41.1211 132.454 40.7323C133.117 39.9546 134.244 39.7162 134.757 40.2556C135.057 40.5817 135.032 40.3685 135.007 43.2034L134.982 45.4989H135.608H136.222L136.159 43.2661C136.096 41.0333 136.096 41.0208 136.397 40.7448C136.772 40.3936 137.448 40.0424 137.962 39.9295C138.274 39.8542 138.437 39.9044 138.713 40.1553L139.076 40.4563L139.113 42.9776L139.163 45.4989H139.726H140.29L140.24 42.8271C140.202 40.6194 140.165 40.1051 139.989 39.7789C139.514 38.9134 138.049 38.7002 136.923 39.3525C136.572 39.5532 136.234 39.7789 136.197 39.8542C136.146 39.942 135.896 39.7915 135.558 39.4779C135.045 39.0138 134.97 38.9761 134.294 38.9761C133.831 38.9887 133.405 39.0765 133.105 39.227Z" fill="#FEFEFE"/>
<path d="M142.58 39.1267C142.555 39.2145 142.505 40.6821 142.48 42.388L142.418 45.4989H143.031H143.644V42.3128C143.644 39.5281 143.619 39.1141 143.444 39.0514C143.106 38.926 142.643 38.9636 142.58 39.1267Z" fill="#FEFEFE"/>
<path d="M156.85 39.2019C156.3 39.5406 155.811 40.1678 155.661 40.7072C155.498 41.3218 155.498 43.2912 155.674 43.9184C155.874 44.6585 156.612 45.3609 157.376 45.5616C158.19 45.7749 159.93 45.5742 160.393 45.2104C160.581 45.0599 160.593 44.5456 160.405 44.4327C160.343 44.3825 159.817 44.4201 159.254 44.4954C157.914 44.6961 157.288 44.5456 156.925 43.9435C156.775 43.7177 156.663 43.3539 156.663 43.1532C156.663 42.7769 156.675 42.7769 157.426 42.6891C157.852 42.6515 158.628 42.6138 159.166 42.6138C160.48 42.6138 160.606 42.5009 160.606 41.3971C160.593 40.3936 160.38 39.9044 159.704 39.3901C159.304 39.089 159.116 39.0389 158.24 39.0012C157.414 38.9761 157.151 39.0138 156.85 39.2019ZM158.565 39.9796C159.116 40.1427 159.542 40.6319 159.542 41.1211C159.542 41.6229 159.241 41.7358 157.864 41.7358H156.663V41.4096C156.663 40.7197 157.076 40.1678 157.789 39.942C158.065 39.8417 158.065 39.8417 158.565 39.9796Z" fill="#FEFEFE"/>
<path d="M172.572 39.1894C171.621 39.666 171.045 41.2215 171.233 42.8772C171.458 44.8592 172.209 45.6243 173.899 45.6243C175.376 45.6243 175.964 45.3358 175.839 44.6835C175.764 44.2821 175.564 44.232 174.988 44.4327C174.713 44.533 174.224 44.6083 173.899 44.6208C173.398 44.6208 173.236 44.5581 172.935 44.2696C172.522 43.8431 172.309 43.1783 172.309 42.2375C172.309 41.2842 172.497 40.7197 172.923 40.3058C173.273 39.9671 173.348 39.9545 174.149 40.0173C174.612 40.0424 175.088 40.1176 175.201 40.1552C175.313 40.2054 175.526 40.1427 175.701 39.9922C175.989 39.7538 176.002 39.7538 175.764 39.4904C175.639 39.3524 175.326 39.1768 175.076 39.1016C174.375 38.9009 173.06 38.951 172.572 39.1894Z" fill="#FEFEFE"/>
<path d="M184.927 40.8828C184.877 44.3323 184.977 44.9093 185.728 45.3734C186.479 45.825 187.818 45.6494 188.382 45.0097C188.695 44.6584 188.782 44.671 188.87 45.11C188.957 45.5114 189.32 45.6745 189.784 45.4989L190.084 45.3734V42.2375V39.089L189.496 39.1266L188.895 39.1643L188.92 40.9831C188.932 41.9866 188.907 43.0528 188.857 43.3664C188.77 43.8933 188.72 43.956 188.094 44.2696C187.28 44.6835 186.679 44.7212 186.329 44.3699C186.091 44.1316 186.078 43.956 186.078 41.6103V39.1016H185.515H184.952L184.927 40.8828Z" fill="#FEFEFE"/>
<path d="M129.825 48.4592C129.6 49.0488 129.838 49.5129 130.376 49.5129C130.939 49.5129 131.177 49.2495 131.077 48.7227C130.989 48.2711 130.977 48.2585 130.451 48.2585C130.063 48.2585 129.875 48.3213 129.825 48.4592Z" fill="#FEFEFE"/>
<path d="M100.81 48.7603C100.197 49.0864 99.8837 49.5129 99.7084 50.2655C99.5207 51.0433 99.6333 51.8962 99.9713 52.3227C100.334 52.7868 101.123 53.2133 102.199 53.5395C102.725 53.69 103.288 53.966 103.514 54.1667C103.852 54.4677 103.902 54.5931 103.902 55.1451C103.902 56.5123 102.7 56.9388 100.635 56.3242C99.8086 56.0733 99.5582 56.1611 99.6083 56.6754C99.6458 57.0141 99.7209 57.1019 100.147 57.265C100.835 57.5158 102.925 57.6162 103.501 57.428C104.603 57.0643 105.141 56.1987 105.066 54.9067C105.028 54.2168 104.953 53.9785 104.678 53.6022C104.277 53.0753 103.451 52.6238 102.337 52.3102C101.286 52.0217 100.835 51.5701 100.835 50.8175C100.835 49.6885 101.686 49.3248 103.439 49.6885C104.578 49.9143 104.891 49.8391 104.816 49.3373C104.79 49.1366 104.578 49.0112 103.964 48.7979C102.9 48.4342 101.473 48.4216 100.81 48.7603Z" fill="#FEFEFE"/>
<path d="M113.478 50.1276V51.0056L112.889 51.0433C112.288 51.0809 112.288 51.0809 112.288 51.5199C112.288 51.959 112.288 51.959 112.889 51.9966L113.478 52.0342V54.1039C113.478 56.4371 113.578 56.8761 114.254 57.29C114.554 57.4657 114.88 57.5409 115.455 57.5409C116.444 57.5409 116.732 57.4029 116.732 56.9137C116.732 56.4496 116.619 56.3869 116.094 56.55C115.581 56.7005 114.779 56.5876 114.679 56.3493C114.642 56.2489 114.604 55.2454 114.592 54.129L114.579 52.0844L115.581 52.0468L116.582 52.0091L116.657 51.6203C116.695 51.407 116.732 51.1938 116.732 51.1311C116.732 51.0683 116.256 51.0182 115.668 51.0182H114.604V50.1401V49.262H114.041H113.478V50.1276Z" fill="#FEFEFE"/>
<path d="M118.472 49.3498C118.459 49.4125 118.447 49.7889 118.434 50.2028L118.422 50.9554L117.859 51.0181C117.521 51.0558 117.295 51.1436 117.308 51.2314C117.32 51.3192 117.333 51.5324 117.345 51.6955C117.358 51.9715 117.421 52.0091 117.896 52.0467L118.422 52.0844L118.485 54.405C118.522 55.6844 118.597 56.8008 118.647 56.8886C118.71 56.9764 118.985 57.1646 119.261 57.3026C119.674 57.5158 119.949 57.5534 120.65 57.5158C121.576 57.4656 121.914 57.2399 121.839 56.7256C121.814 56.5249 121.727 56.4872 121.426 56.5374C120.725 56.6503 119.836 56.575 119.724 56.3994C119.661 56.2991 119.611 55.283 119.611 54.129V52.0342L120.65 51.9966L121.676 51.9589V51.5199V51.0809L120.65 51.0432L119.611 51.0056V50.1401V49.262H119.048C118.735 49.262 118.485 49.2997 118.472 49.3498Z" fill="#FEFEFE"/>
<path d="M107.469 51.0307C106.993 51.1687 106.468 51.6704 106.468 51.984C106.468 52.1847 106.493 52.1847 108.621 51.9464C109.159 51.8837 109.259 51.9088 109.597 52.2474C109.91 52.5736 109.973 52.7241 109.973 53.2635V53.9032H108.696C107.619 53.9032 107.331 53.9409 106.993 54.1541C105.942 54.7938 105.955 56.7883 107.019 57.3528C107.594 57.6664 108.633 57.5535 109.459 57.0893L110.073 56.7381L110.536 57.1521C110.874 57.4406 111.087 57.5409 111.274 57.4907C111.412 57.4531 111.612 57.4155 111.713 57.4155C111.963 57.4155 111.763 56.7757 111.412 56.4747C111.124 56.2364 111.112 56.1486 111.074 54.2168C111.024 51.9213 110.924 51.5826 110.135 51.1938C109.585 50.9304 108.133 50.8425 107.469 51.0307ZM109.785 54.9067C110.048 55.0071 110.098 55.0823 110.035 55.3207C109.835 55.9604 108.821 56.6629 108.108 56.6629C107.857 56.6629 107.657 56.5625 107.482 56.3367C107.056 55.7973 107.169 55.258 107.782 54.9318C108.095 54.7562 109.347 54.7437 109.785 54.9067Z" fill="#FEFEFE"/>
<path d="M124.43 51.106C123.304 51.6955 122.928 52.5234 122.928 54.3423C122.928 55.9604 123.191 56.6001 124.067 57.1646C124.63 57.5158 124.743 57.5409 125.92 57.5409C127.422 57.5409 127.797 57.4029 127.847 56.8134C127.898 56.3493 127.835 56.3367 126.521 56.55C125.306 56.7507 124.718 56.5751 124.318 55.8726C124.142 55.5841 123.967 55.1952 123.929 54.9945L123.842 54.6559H125.757C126.821 54.6559 127.772 54.5931 127.872 54.5304C128.16 54.3548 128.123 52.7241 127.822 52.1095C127.472 51.3945 126.533 50.8927 125.557 50.8927C125.119 50.9053 124.643 50.9805 124.43 51.106ZM126.583 52.3353C126.934 52.6865 127.009 52.8496 126.971 53.1757L126.934 53.5896L125.469 53.6273C124.042 53.6649 123.992 53.6524 123.992 53.4015C123.992 52.6238 124.768 51.8962 125.582 51.8962C126.057 51.8962 126.208 51.959 126.583 52.3353Z" fill="#FEFEFE"/>
<path d="M135.708 51.0934C135.446 51.1812 135.045 51.3819 134.82 51.5199L134.407 51.7708L134.269 51.3945C134.156 51.0432 134.094 51.0056 133.731 51.0432L133.318 51.0809L133.293 54.2544L133.255 57.4155H133.818H134.382V55.1827C134.382 53.0252 134.394 52.9373 134.669 52.6865C135.308 52.0969 136.409 51.7708 136.885 52.0216C137.398 52.2976 137.511 52.8495 137.511 55.2203V57.4155H138.087H138.65L138.612 54.8064C138.575 52.5109 138.55 52.1596 138.337 51.8084C137.836 50.9931 136.772 50.7046 135.708 51.0934Z" fill="#FEFEFE"/>
<path d="M141.279 51.1185C140.678 51.4195 140.365 51.8962 140.29 52.6237C140.19 53.7652 140.74 54.3297 142.418 54.7938C143.845 55.1952 144.095 55.5966 143.382 56.3116C142.969 56.7256 143.006 56.7256 140.803 56.4621C140.152 56.3869 140.14 56.3869 140.14 56.7005C140.14 57.2524 140.603 57.4531 142.055 57.5033C143.106 57.5534 143.407 57.5158 143.77 57.3277C144.658 56.8635 144.996 55.835 144.596 54.844C144.383 54.3548 143.619 53.9158 142.556 53.6523C141.892 53.5018 141.266 53.0502 141.266 52.7366C141.266 52.0467 142.405 51.7081 143.457 52.0593C143.77 52.1722 144.108 52.2349 144.208 52.1973C144.433 52.1095 144.558 51.7206 144.458 51.407C144.308 50.9178 142.067 50.7046 141.279 51.1185Z" fill="#FEFEFE"/>
<path d="M129.875 54.2168V57.4155H130.439H131.002V54.2168V51.0181H130.439H129.875V54.2168Z" fill="#FEFEFE"/>
</svg>
